<?xml version="1.0" encoding="utf-8"?>
<!-- Generator: Adobe Illustrator 19.0.0, SVG Export Plug-In . SVG Version: 6.00 Build 0)  -->
<svg version="1.1" id="Patterns" xmlns="http://www.w3.org/2000/svg" xmlns:xlink="http://www.w3.org/1999/xlink" x="0px" y="0px"
	 viewBox="0 0 800 800" style="enable-background:new 0 0 800 800;" xml:space="preserve">
<style type="text/css">
	.st0{fill:#9D9D9C;}
</style>
<g>
	<g>
		<path class="st0" d="M192.9,217.8L192.9,217.8c-0.8,0.5-1.2,1.9-0.2,2.4c20.7,11.2,42.4,20.6,64,29.9c10.9,4.7,21.9,9.3,33,13.8
			c5.3,2.2,10.7,4.3,16,6.4c5,2,10.2,4.6,15.5,5.6c0,0.2,0,0.4,0,0.5c0.2,1.8,3,1.9,3.5,0.3c2.1-6.1,2.3-13.1,2.7-19.6
			c4.9,3.2,10.7,5.7,15.8,8.4c1.7,0.9,4.1-0.7,3.1-2.7c0-0.1-0.1-0.2-0.1-0.3c0.8,0.2,1.8-0.2,1.8-1.2c0.1-10.5-1.1-20.9-2.6-31.2
			c-1.4-10-2.2-21.4-6.1-30.8c-0.2-0.5-0.6-0.8-1.1-0.9c0-0.1,0.1-0.2,0.1-0.3c0.2-0.1,0.4-0.2,0.6-0.3c3.5-4,3.6-11,4.7-16.1
			c1-4.9,2.7-10.1,3-15.2c0.4-1.3,0.9-2.7,1.2-4.1c0.3-1.6,1-3.3,0.6-4.9c-0.3-1.5-2.3-1.9-3.1-0.6c-0.3,0.4-0.5,0.9-0.7,1.4
			c-0.4-0.9-1.2-1.5-2.3-1.1c-12.1,3.5-23.8,9.6-35.4,14.3c-12.8,5.1-25.6,10.2-38.5,15.1c-25.3,9.6-51.2,17.9-76.3,28.2
			C190.5,215.4,191.3,218,192.9,217.8z M327.9,252.6c0.5-4.7,1-9.3,1.3-14c3.3,6.6,6.7,13.2,10.1,19.7
			C335.6,256.2,331.8,254.1,327.9,252.6z M340.8,229.7c1.5,10.2,2.5,20.4,4.2,30.5c-5-9.4-10.1-18.9-15.4-28.1
			c0-0.7,0.1-1.5,0.1-2.2c1.8-0.9,1.7-4.1-0.8-4.3c-34.4-2.4-68.8-6.2-103.2-8.7c13.1-1.5,26.1-3.4,39-5c11.8-1.4,23.6-2.9,35.5-4.5
			c11.7-1.5,24.4-2.1,35.9-5.2C336.6,211.3,339.4,220.7,340.8,229.7z M268.2,191.8c12.5-4.7,25-9.5,37.4-14.5
			c12.6-5,26.4-9.3,38.1-15.9c0.1-0.1,0.2-0.1,0.3-0.2c0,0.2-0.1,0.3-0.1,0.5c-0.1,0.3-0.1,0.6-0.2,1c-2.5,4.9-3,11-4.1,16.4
			c-0.8,3.8-2.4,8.4-2.9,12.7c-0.4,1-0.7,2-1,3c-0.4,1.2-0.7,2.4-1,3.7c-10.5,0.4-21.3,2.9-31.7,4.3c-12.2,1.7-24.5,3.3-36.7,4.8
			c-19.9,2.5-40.3,3.8-60.3,6.6C227,207.6,247.7,199.5,268.2,191.8z M199.4,219c41.8,5.8,84.4,8,126.5,10.9
			c-0.3,0.4-0.5,0.9-0.2,1.6c-1.2,7.2-2,14.5-2.7,21.8c-0.6,5.8-1.9,11.9-2,17.9c-4-2.1-8.4-3.3-12.6-5c-5.7-2.2-11.5-4.5-17.2-6.8
			c-10.7-4.3-21.3-8.7-31.9-13.2c-20.8-8.8-41.2-18.5-62.1-27.2C198,219.1,198.7,219.1,199.4,219z"/>
	</g>
	<g>
		<path class="st0" d="M364.8,232.7c-0.8-16.3,12.5-31.8,28.9-31.9c-3.2,4.5-5.6,9.4-7,14.6c-2.5,9.6-0.4,19.6,6.9,26.6
			c6.2,6,15.6,8.8,23.5,4.4c8.9-4.9,11.6-16.6,9.5-25.9c-2.4-10.5-11-18.7-21-22.3c-1-0.3-1.9-0.6-2.9-0.9c5.3-5.4,11.5-9.8,17.4-13
			c14.9-8.3,32.9-11.1,48.8-3.8c1.9,0.9,3.8,2,5.7,3.2c-6.6,10.1-9,22.3-2.8,34.4c3.1,6.1,12,16.3,19,9.4c6.9-6.7,6.4-19,3.5-27.3
			c-2.6-7.3-7.2-13.3-13-17.9c9.1-10.8,25.7-19.1,40.3-19.8c-3.5,6.9-4.8,14.4-2,21.9c3,8.2,11.9,15.1,20.9,12.3
			c8.6-2.7,13.1-12.9,11-21.3c-2.4-9.6-11.9-15.8-21.3-17.3c7.3-9.5,18.9-17.3,27.3-21.4c2.7-1.3,0.7-5.3-2.1-4.1
			c-10.1,4.4-23.1,13.7-30.8,25c-10.6-0.1-21.5,3.8-30.6,8.7c-6.1,3.3-11.9,7.9-16.3,13.4c-10.6-6.8-24.2-9.4-36.6-7.5
			c-15.4,2.3-32.7,11.4-43.8,24.3c-19.8-1.6-36.6,15.6-34.8,36.4C362.5,234.2,364.9,234.1,364.8,232.7z M527,162.6
			c10.3,1,22.9,9,19.4,21c-3.9,13.4-19.8,9.1-22.7-2.4C522,174.8,523.6,168.4,527,162.6z M478.3,186.4c10,8.3,17,21.4,11.4,34
			c-5.5,12.2-15-6.8-15.9-12.1C472.4,200.6,474.2,192.9,478.3,186.4z M399.3,201.3c14.4,2.7,26.9,16.3,22.6,31.6
			c-2.2,7.7-9.3,12.9-17.3,10.5c-8.2-2.5-14.1-11.1-14.3-19.5C390.2,215.5,393.9,207.8,399.3,201.3z"/>
	</g>
	<g>
		<path class="st0" d="M645.8,10.6c-1.2,3.8,0.1,8.3,3.3,11.2c5.7,5.1,13.7,2.5,19.3-1.4c-0.4,6.1,4.7,11.4,10.6,12.7
			c6.2,1.4,11.7-1.3,15.7-5.6c-2.9,14.6-5.5,29.2-8.4,43.7c-0.7,3.3,4.4,4.4,5.1,1.1c2.6-13.2,5.6-26.4,8.3-39.6
			c2.6,1.9,6.3,2.6,9.3,1.5c3.4-1.3,5.4-4.1,6.1-7.3c5.3,2.5,12,2,16.4-2.4c3.8-3.9,4.6-9.7,2.8-14.6c7.4,1.4,15.6-3.2,18.8-10h-5.4
			c-3.4,4.8-9.3,5.6-15.1,5c-0.5-0.1-0.9,0.1-1.3,0.3c-0.1-0.1-0.3-0.3-0.4-0.4c-1.3-1.2-3.6,0.6-2.5,2.1
			c7.7,9.9-4.2,22.9-13.9,13.8c-1.9-1.8-4.5,0.3-4,2.5c0.8,3.5-1.9,7.4-5.9,6.6c-1.5-0.3-2.7-1.5-3.8-2.6c1.8-9.1,3.5-18.1,4.9-27.2
			h-5c-1.1,4.6-2.2,9.1-3.2,13.7c-6.1-2.9-10.4-7.7-12.8-13.7h-5.7c2.3,8.6,9.1,15.4,17.6,18.2c-0.2,1.2-0.5,2.3-0.7,3.5
			c-3.5,3.8-8.7,7.2-14,6.9c-5.4-0.3-9.3-4.6-9.7-9.9c-0.1-1.4-1.5-1.9-2.5-1.4c-0.4-0.3-0.9-0.4-1.5-0.1c-3.7,1.9-8.1,3.9-12.4,2.8
			c-4.3-1.1-7.9-6.1-4.3-10.1c1.2-1.4,0.3-4-1.7-3.8c-5.2,0.6-10.3-1.8-12.6-6.2h-4.9C634.1,5.9,639.7,9.8,645.8,10.6z"/>
	</g>
	<g>
		<path class="st0" d="M753.2,799.5c3.2-7.6,0-16.1-6.3-20.8c4.5-4.5,6.4-11.6,3.1-17.5c-2.9-5.3-10.2-8.7-16.1-6.7
			c1.9-6.8-1.4-14.9-7.1-18.8c-6.3-4.2-14.6-3.3-20.4,1.1c-3.1-6.6-10.1-11.1-17.6-10c-7.2,1.1-12.7,7.3-13.5,14.3
			c-3.1-5.7-10.2-8.6-16.8-6.5c-8.2,2.7-11.2,11.8-9.8,19.7c-6.5-1.1-13.6,1.7-16.4,8.2c-3.2,7.1,0.7,15.1,7.2,18.4
			c-5.8,2.6-9,10.4-8.1,16.5c0.1,0.9,0.4,1.8,0.6,2.6h4.9c-0.6-1.1-1-2.3-1.1-3.7c-0.8-6.5,3.6-9.7,7.9-13.4
			c0.9-0.8,0.4-2.2-0.6-2.6c-0.1-0.4-0.2-0.7-0.6-0.9c-13-6.6-5.5-26.4,8.3-20c1.6,0.7,3.8-0.7,3.1-2.6c-2.3-5.9-1.7-13.9,4.4-17.4
			c5.7-3.2,12.8,0.2,14.6,6.2c0.4,1.4,2.2,1.6,3.2,0.8c0.9,0.6,2.4,0.1,2.4-1.3c0.1-6.9,4.6-13.9,12.1-14.2
			c6.3-0.2,11.3,4.5,12.8,10.3c0.4,1.6,2.6,2,3.7,0.8c4.4-4.8,11.9-6.6,17.5-2.6c6.2,4.4,6,11.3,4,17.8c-0.7,2.2,2.3,2.8,3.4,1.3
			c0.1-0.2,0.2-0.3,0.3-0.5c5-0.6,10.1-0.6,13.3,4c3.6,5.1,1.2,11.9-3.7,15c-1.4,0.9-1.3,3,0.1,3.8c5.9,3.2,9.4,10.2,6.7,16.7
			c-0.4,0.9-0.8,1.7-1.3,2.5h5.4C753,799.8,753.1,799.7,753.2,799.5z"/>
	</g>
	<g>
		<path class="st0" d="M706.2,794.4c5.3-0.4,11.6-5.9,8.4-11.3c-0.8-1.4-3.3-1.1-3.5,0.6c-0.2,1.8-0.2,3.3-1.6,4.7
			c-1.4,1.4-3.5,2-5.4,1.4c-2.4-0.7-4-2.7-5.1-4.9c0.1-1.7-0.3-3.4-1.3-4.9c0,0,0-0.1,0-0.1c0-0.2-0.1-0.3-0.1-0.4
			c2.2-0.6,4.1-1.8,5.3-3.9c0.9-1.6-1-3.2-2.5-2.3c-2,1.2-3.5,2.7-6,3.2c-2.6,0.5-5.1,0.2-7.4-1.1c-1-0.6-2.1,0.9-1.2,1.7
			c2.1,1.7,5.1,2.7,8.1,2.9c-0.2,0.5-0.2,1,0.1,1.6c1.4,2.5,1.2,6.4-1.9,7.7c-3.5,1.5-7.1-2-7.1-5.4c0-1.5-2.5-1.8-2.7-0.2
			c-0.1,0.5-0.1,1-0.1,1.4c-1.1,1-1,2.6-1.3,4c-0.4,1.8-1.3,3.7-2.8,4.8c-2.4,1.7-7.1-0.3-6-3.6c0.5-1.5-1.8-2.2-2.5-0.9
			c-2.9,5,3,10.2,8,9.4c0.3-0.1,0.7-0.1,1-0.2c0.1,0.6,0.2,1.1,0.4,1.6h5.7c-0.6-1.4-1.1-2.9-1.5-4.5c0-0.2-0.1-0.3-0.1-0.4
			c0.5-0.6,0.8-1.2,1.2-1.9c0.3-0.6,0.6-1.4,0.9-2.1c2.2,2.1,5.3,3.1,8.3,2c1.7-0.6,3.1-1.8,4.1-3.3c1.2,1.8,2.8,3.3,4.9,4.1
			c-0.1,0.2-0.2,0.4-0.3,0.7c-0.5,1.8-0.9,3.7-1.4,5.5h5c0.2-1.5,0.5-3,0.7-4.5C706.4,795.1,706.3,794.7,706.2,794.4z"/>
	</g>
	<g>
		<path class="st0" d="M23.4,104.7c0.5,0.8,1.2,1,1.9,0.9c0.4,0.4,1.1,0.5,1.8,0.3C44,100.3,60.3,93,76.4,85.6
			c7.7-3.5,15.3-7.2,22.9-10.9c7.7-3.8,16.1-7.2,23-12.2c1.5-1.1,1-2.9-0.3-3.7c0-0.1,0-0.1,0-0.2c-5.6-14.6-11.6-29.1-18.1-43.3
			c-2.3-5.1-4.7-10.2-7.1-15.3H91c2.9,6.2,5.9,12.3,8.7,18.5c6.2,13.6,12.3,27.2,18.1,40.9c-7,2.8-13.7,6.9-20.5,10.3
			c-3.3,1.6-6.5,3.2-9.8,4.8c0,0,0,0,0-0.1c-4.9-15.6-17.4-48.8-40.2-37.7c-7.7,3.8-9.5,12-7.4,19.8c3,11.3,10,22.5,16.8,32.1
			C46.8,93,36.9,97.3,27,101.9C21.3,87,13.1,72.8,6.2,58.4C4.1,54.2,2.1,49.9,0,45.7v11.2c0.7,1.5,1.5,3,2.2,4.6
			C9.1,75.8,15.3,91,23.4,104.7z M48.5,64.8c-3.6-7.7-8.8-20,2.3-24.2c8.9-3.4,16.9,3.4,21.3,10.5c4.9,7.9,6.2,17.6,11.3,25.3
			c-3.4,1.6-6.8,3.2-10.1,4.8c-4.3,2-8.6,3.9-13,5.9C56.1,79.8,52,72.5,48.5,64.8z"/>
	</g>
	<g>
		<path class="st0" d="M19.6,0c-0.3,0.1-0.6,0.3-0.9,0.4c0.1-0.1,0.1-0.3,0.2-0.4h-4.3c-0.7,0.9-1.7,1.7-2.9,2.2
			C8.3,3.6,4.9,2.3,2.4,0H0v2.6c1.7,1.6,3.7,2.7,5.9,3.3C3.9,6.8,2,7.6,0,8.4v5C10.9,9.2,21.7,4.7,32.4,0H19.6z"/>
	</g>
	<g>
		<path class="st0" d="M67.3,65.3c2.5-0.6,3.6-3.1,3-5.5c-0.5-1.8-2.1-3.5-4-3.4c-0.2-0.3-0.5-0.5-0.9-0.5c-1.5-0.1-3,0.3-4.2,1.4
			c-1.1,1.1-1.1,2.7-0.6,4.1C61.7,64,64.5,66,67.3,65.3z M64.3,58.9C64.3,58.9,64.3,58.9,64.3,58.9c0.3,0.7,0.9,1.2,1.8,1.1
			c0.1,0,0.1,0,0.1,0c0.1,0.3,0.3,0.3,0.4,0.8c0,0.1,0.1,0.4,0,0.7c0,0-0.1,0.1-0.3,0.1c-0.8,0.1-1.6-0.6-2-1.3
			c-0.2-0.3-0.4-0.7-0.5-1.1C64,59.2,64.1,59,64.3,58.9z"/>
	</g>
	<g>
		<path class="st0" d="M9.6,49.9c0.3,0.7,0.8,1,1.4,1.1c0.3,0.6,1,1,1.9,0.7c5.5-2.1,11-4.3,16.5-6.5c1.1-0.5,1.5-1.7,1.1-2.7
			c-2.3-7.6-5.6-14.8-10-21.4c-0.5-0.8-1.2-1-1.9-0.9c0-1.5-1.3-3-3.1-2.1c-4.3,2.2-8.9,4.3-13,6.9c-0.9,0.6-1.8,1.1-2.5,1.9v5.8
			c0.7,1.3,1.7,2.5,2.4,3.5C5.1,40.6,7.5,45.2,9.6,49.9z M13,48.2c-0.9-2.7-2-5.4-3.2-7.9c0.9-0.3,1.7-0.7,2.6-1
			c1.5,2.5,3.1,4.8,4.7,7C15.7,46.9,14.3,47.5,13,48.2z M25.9,42.2c-1.7,0.8-3.5,1.6-5.2,2.4c-1.7-2.2-3.1-4.6-4.5-6.9
			c2.2-1,4.4-2.2,6.5-3.4C23.9,36.8,25,39.4,25.9,42.2z M16.7,22.8c0,0.3,0.1,0.6,0.3,1c1.4,2.2,2.7,4.5,3.9,6.8
			c-2.2,1.3-4.4,2.5-6.6,3.8c-1.5-2.6-3-5.3-4.5-7.9C12.1,25.3,14.4,24.1,16.7,22.8z M4,29.6c0.2-0.6,2.2-1.4,3.4-1.9
			c0.7,3,1.9,6,3.4,8.8c-0.8,0.4-1.5,0.9-2.2,1.3c-0.9-1.8-1.9-3.5-3-5.3C5.3,31.9,3.8,30.3,4,29.6z"/>
	</g>
	<g>
		<path class="st0" d="M55.3,3.3c-0.1,0.3-0.1,0.7,0,1.1c2.7,7.7,5.8,15.2,9,22.7c0.6,1.4,2.3,1.7,3.4,0.9c5.4-3.9,11.2-7.3,17.3-10
			c2-0.9,1.5-3.3,0.1-4.2c-0.3-3.4-2.2-6.6-3.5-9.7C81.2,3,80.8,1.5,80.2,0h-5.1c0.1,0.2,0.2,0.4,0.4,0.6c0.5,0.8,0.9,1.6,1.2,2.5
			c-2.5,0.8-5.1,2-7.5,3.3c-1-1.9-2-3.9-3.1-5.8c0.1,0,0.2-0.1,0.3-0.1c0.4-0.1,0.8-0.3,1.2-0.5h-9.2c-0.9,0.5-1.8,0.9-2.6,1.4
			C55,1.8,55,2.7,55.3,3.3z M78.1,6.9c0.9,2.8,1.8,5.6,3.4,7.8c-2.3,1.1-4.5,2.3-6.7,3.5c-0.7-2.9-2.4-5.6-3.7-8.2
			c-0.1-0.2-0.2-0.3-0.3-0.5C73.1,8.5,75.5,7.6,78.1,6.9z M67.1,11.3c0.2,0.4,0.4,0.7,0.6,1.1c1.4,2.4,2.6,5.3,4.5,7.4
			c-1.6,1-3.2,2-4.8,3.1c-1.4-3.2-2.8-6.4-4.2-9.6c0.2,0,0.5,0,0.7-0.2C64.9,12.4,66,11.8,67.1,11.3z M62.2,2
			c1.1,2.2,2.3,4.4,3.5,6.6c-1.2,0.8-2.3,1.6-3.3,2.5c0,0-0.1,0.1-0.1,0.1c-1.2-2.7-2.5-5.3-3.8-7.9C59.7,2.9,60.9,2.5,62.2,2z"/>
	</g>
	<g>
		<path class="st0" d="M785.5,19c-0.6-0.5-1.7-0.1-1.8,0.7c-0.2,6.5,4.8,13.4,7.6,19.1c2.9,6,5.8,12,8.7,18V45.7
			c-1.4-2.9-2.8-5.8-4.2-8.6C793,31.3,790.7,22.9,785.5,19z"/>
	</g>
	<g>
		<path class="st0" d="M786.4,18.7c1.1,0.3,2.4,0,3-1.1c3.6-1.3,7.1-2.7,10.7-4.1v-5c-0.3,0.1-0.6,0.2-0.9,0.4
			c0.5-2.1,0.7-4.2,0.7-6.3c0,0,0.1,0.1,0.1,0.1V0h-3.6c0.5,3.3,0.6,6.5,0,9.9c-2.2,0.9-4.3,1.8-6.5,2.7c0.4-4.2,0.8-8.4,1.1-12.6
			h-5.3c-0.4,5-0.9,9.9-1.3,14.9C782.6,16.1,784,19.4,786.4,18.7z"/>
	</g>
	<g>
		<path class="st0" d="M800,32.7v-5.8c-0.5,0.5-0.8,1.2-1,2C798.8,30.2,799.3,31.5,800,32.7z"/>
	</g>
	<g>
		<path class="st0" d="M0,797.1v2.9h2.4C1.5,799.2,0.6,798.2,0,797.1z"/>
	</g>
	<g>
		<path class="st0" d="M84.6,775.6c1.8-0.4,3.3-2.8,1.7-4.4c-11.9-11.9-24.6-22.9-37.9-33.2c1.4-3.1,1.9-6.7,2.5-10
			c0.4-2.6,1.4-5.9,0.6-8.5c-0.6-1.8-1.9-2.8-3.6-3.4c-1.4-0.5-2.9-0.8-4.4-1c4.4-3.5,7.2-8.8,7.2-14.6c8.1-5.6,13.9-17.8,12-27.5
			c0.9-1,1.6-2.1,2.2-3.1c4.8-8.3,3.6-18.9-2.4-26.2c-1.7-2-4.7,0.4-3.2,2.5c4.8,6.8,5.5,15.5,1.8,22.1c-1.4-2.5-3.5-4.7-6.4-6.2
			c-5.5-2.9-13.6-1.6-16.7,4.2c-2.7,5-0.8,12.4,4.8,14.5c5.4,2.1,11.5-0.3,16.2-4.1c0.1,5.6-3.5,14.6-8.7,19.5
			c-1.3-5.1-5-9.9-10.5-10.3c-5.9-0.5-9.7,5-8.2,10.5c1.8,6.4,9.2,8.3,14.9,6.3c0.2-0.1,0.5-0.2,0.7-0.3c-0.4,4.9-3,9.4-6.9,12.3
			c-1.9-0.2-3.7-0.3-5.4-0.6c-1-0.1-2.2,0.6-2.3,1.7c-0.2,3.3-0.7,6.6-1.1,9.8c-10.3-7.1-20.8-13.8-31.5-20v6.3
			c1.2,0.7,2.4,1.4,3.5,2.1c1.8,2.8,2.4,6,0.8,9.1c-1,1.9-2.6,3.1-4.4,3.7v3.7c1-0.2,2-0.6,2.9-1.1c0,0.1,0.1,0.1,0.1,0.2
			c1.6,2.3,2.1,5.1,1.2,7.8c-0.2,1.2-0.7,2.2-1.6,3c-0.7,1.3-1.5,2-2.5,2.3v3.5c0.6-0.1,1.1-0.3,1.6-0.5c1,3.5,1.9,7.6,0.3,11.1
			c-0.4,1-1.1,1.9-1.9,2.7v3.9c0.4-0.2,0.7-0.3,1.1-0.5c1,4,0.8,9.7-1.1,13.7v20c2.5-2.4,3.1-5.8,2.6-9.1c3.4,1.7,7.4,2,11,0.5
			c-0.1,0.3,0,0.7,0.2,1.1c0.1,0.1,0.2,0.3,0.3,0.4c0,0,0,0,0,0c0,0,0,0.1,0.1,0.1c0.4,0.6,0.8,1.2,1.2,1.7c1.4,2.7,1.1,6.2-0.7,8.6
			h4.3c0.7-1.5,1.1-3.2,1.1-4.9c2.4,1.2,5,1.7,7.7,1.3c-2.7,1.2-5.4,2.4-8.1,3.6h12.8c1.5-0.7,3.1-1.3,4.6-2
			c14.4-6.5,29.5-12.8,43.2-20.8c0,0,0,0.1,0,0.1c2.3,7.1,6.5,13.9,9.8,20.6c0.3,0.7,0.7,1.4,1,2.1h5.9c-0.8-1.8-1.7-3.6-2.5-5.3
			C91.4,788.3,88.6,781.4,84.6,775.6z M52.7,676.1c-3.6,1.7-8.8,3.1-11.4-1.4c-1.5-2.6-0.6-6.4,1.7-8.3c5.9-4.8,12.5,0.3,14.9,6.1
			C56.4,673.9,54.7,675.1,52.7,676.1z M37.8,698.1c-7.5-5.3,3.2-10,7.1-4.8c1.2,1.5,1.8,3.4,2.1,5.3C44.2,700.2,41,700.4,37.8,698.1
			z M53.5,749.6c-4.8,2-10.2,1.1-13.7-2.6c-0.3-0.8-0.7-1.5-1.3-2.1c1.2-0.9,2.3-2.1,2.9-3.7c0.1-0.3,0.2-0.7,0.1-1
			C45.5,743.2,49.5,746.4,53.5,749.6z M36.2,718.5c2,0.3,3.9,0.6,5.9,0.9c3.6,0.5,5.1,0.7,5.2,4.8c0.1,3.8-1.5,7.6-2.2,11.4
			c-3.5-2.6-7.1-5.2-10.7-7.8C35,724.7,35.5,721.6,36.2,718.5z M25.6,728.5c4.7,3.3,9.3,6.6,13.9,10c-0.6,0-1.2,0.4-1.6,1.1
			c-3,6.2-9.3,1.8-11.7-1.5c-0.3-0.5-0.6-1-0.9-1.5c-0.4-1.6-1-3.2-1.9-4.7C24.3,731.1,25,729.9,25.6,728.5z M33,772.9
			c-4.5,3.2-10.3,1.3-13.4-2.6c-0.4-0.8-0.9-1.6-1.4-2.4c0.4-0.2,0.7-0.4,1.1-0.7c3.2-2.4,4.7-6,4.6-9.6c3.5,2.2,7.5,3.2,11.4,1.1
			c0.3,1.2,0.8,2.4,1.4,3.5C37.5,766.1,36.5,770.5,33,772.9z M25.2,743.1c1.5,1.5,3.3,2.6,5.5,3.1c1.3,0.3,2.5,0.3,3.7,0.2
			c0.3,0.6,0.7,1.1,1.1,1.6c1.3,2.6,0.8,4.8-1.5,6.7c-2.3,1.2-4.6,1.3-6.8,0.2c-2.4-1-4.2-2.9-5.8-4.9c-0.1-0.2-0.2-0.3-0.3-0.4
			C23.3,747.9,24.6,745.6,25.2,743.1z M9,717.5c4.5,2.9,9,5.8,13.4,8.8c-2.4,8.2-12.1,5.4-16.8,1C8,724.8,9.4,721.1,9,717.5z
			 M7.9,733.3c3.9,1.9,8.4,2.4,12,1c0.5,1.2,1.1,2.5,1.7,3.8c0.6,3.4-0.4,7-3.4,9.1c-4.5,3.2-10.6,1-13.5-3.2
			c-0.1-0.1-0.1-0.1-0.2-0.2C7.3,741,8.4,737.1,7.9,733.3z M6.2,750.2c3.4,2.1,7.6,2.7,11.4,1.4c2.9,3.5,3.3,9.5-0.8,12.5
			c-4.1,3.1-9.8,0.9-12.4-2.9c-0.2-0.3-0.4-0.4-0.7-0.5C6.1,757.9,6.6,754,6.2,750.2z M13.9,783.5c-4.2,3.3-10.1,1.7-13.3-2.1
			c0.5-0.4,0.9-0.8,1.4-1.2c3.3-3.4,4.1-8.1,3.8-12.6c2.6,1.5,5.7,2.2,8.7,1.6c0,0.1,0,0.1,0.1,0.2c0.5,1,1.1,2,1.7,2.9
			C17.8,776.1,17.4,780.8,13.9,783.5z M18.8,789.9c-0.5-0.9-1.1-1.8-1.8-2.6c-0.3-0.3-0.7-0.5-1.1-0.5c0.1-0.1,0.3-0.2,0.4-0.3
			c3.2-2.5,4.7-6.2,4.7-10c3.4,1.9,7.4,2.5,11.3,1.1c0,0.2,0.1,0.5,0.3,0.7C38.5,788.2,25.7,797.2,18.8,789.9z M33.9,793.6
			c-0.1,0.1-0.3,0.1-0.4,0.2c2.8-2.3,4.3-5.7,4.4-9.1c2.5,2.1,5.8,3.2,9,2.7C42.5,789.5,38.2,791.6,33.9,793.6z M49.1,782.4
			c-4.4,3.5-10.1,0.5-12.3-3.9c-0.1-0.3-0.3-0.6-0.4-0.9c-0.3-0.7-0.4-1.4-0.5-2c0,0,0,0,0,0c2.7-2.2,4.4-5.4,4.9-8.8
			c2.1,1.4,4.6,2.2,7.2,1.9c0.1,0.1,0.1,0.2,0.2,0.3c0.7,0.8,1.4,1.6,2.2,2.3C52.6,774.7,52.5,779.7,49.1,782.4z M40.5,761.2
			c-0.3-1.3-0.8-2.7-1.5-3.9c-0.2-0.4-0.6-0.7-0.9-0.9c1-1.2,1.8-2.6,2.1-4.1c4,2.5,8.8,3.1,13.6,1.5C57,763.2,45,767.8,40.5,761.2z
			 M52.5,784.5c2.3-2.3,3.4-5.5,3.2-8.7c3.3,2.1,7,3.1,11,1.5c5.2-2.2,7-8.6,3.3-13c-1.7-2-5,0.5-3.3,2.5c1,4.9-0.2,7.2-3.6,6.7
			c-2.2,0.4-4.3-0.1-6.1-1.7c-1.3-0.8-2.4-1.9-3.5-3c-0.4-0.5-0.8-1.1-1.2-1.5c4.9-2.7,6.8-8.8,5.4-14.2c7.2,6,14.3,12.2,21.2,18.6
			C70,775.7,61.3,780.1,52.5,784.5z"/>
	</g>
	<g>
		<path class="st0" d="M76.6,794.1c-2.3-1.6-4.7-0.5-7.1,0.6c-2.3,1-4.5,2-6.8,3.1c-0.4,0.1-0.8,0.3-1,0.5c-1.1,0.5-2.1,1.1-3.2,1.7
			h9.2c1.2-0.5,2.4-1,3.5-1.3c2.4-0.6,2.8-0.4,3.9,1.3h5.1C79.4,797.7,78.3,795.3,76.6,794.1z"/>
	</g>
	<g>
		<path class="st0" d="M794,706.6c-2.2,24.6-4.4,49.3-6.5,73.9c-0.3,0.4-0.4,0.9-0.1,1.3c-0.5,6.1-1,12.1-1.6,18.2h5.3
			c0-0.5,0.1-0.9,0.1-1.4c1.6,0.7,3.3,0.7,5,0.3c0.1,0.4,0.1,0.7,0.2,1.1h3.6v-2.9c-0.1-0.1-0.1-0.2-0.2-0.3
			c0.1-0.1,0.1-0.1,0.2-0.2v-20c-1.4,2.9-3.7,4.9-7.2,4.6c0.5-5.8,1.1-11.6,1.6-17.4c1.8,0.5,3.8,0.3,5.6-0.5v-3.9
			c-1.5,1.4-3.5,2.2-5.4,2.1c0.5-5.1,0.9-10.2,1.4-15.4c1.3,0.3,2.8,0.3,4.1,0v-3.5c-1.1,0.3-2.3,0-3.7-0.8c0.3-3.7,0.7-7.5,1-11.2
			c0.9,0.1,1.8,0,2.7-0.2V727c-0.8,0.3-1.6,0.4-2.4,0.5c0.5-5.3,0.9-10.7,1.4-16c0.3,0.2,0.7,0.4,1,0.6v-6.3c-0.6-0.3-1.1-0.7-1.7-1
			C796.6,703.8,794.2,704.3,794,706.6z M797.4,783.3c1.1,2.2,2.3,5,1.9,7.6c-0.2,1.3-0.8,2.4-1.6,3.4c-1-0.1-2.2,0.5-2.1,1.7
			c-1.3,0.6-2.7,0.8-4.1,0.2c0.4-4.1,0.7-8.1,1.1-12.2C794.2,784.1,795.8,783.9,797.4,783.3z"/>
	</g>
	<g>
		<path class="st0" d="M29,415.6c13.3-1.7,23.7-12.2,26.8-24.8c5.3,5.3,13.7,7.4,20.6,3.8c7.1-3.7,10.2-11.7,8.9-19.1
			c13,3.9,28.8-3.2,32.9-16.8c4.6-15.6-8.6-30.4-23.6-31.9c7.1-10.3,3.4-25.4-8.3-31.7c-15.3-8.3-31.5-0.7-41.7,11.4
			c-4-9-13.8-15.1-23.8-13.1c-10.3,2.1-16.8,11.6-17,21.5c-0.8-1-2-0.9-3-0.3c-0.3-0.5-0.6-1-0.9-1.5v8c0.7,1,2.2,0.9,2.8,0
			c1.3,0.6,2.9,0.7,4.6,0.2c1.4-0.4,2.1-1.8,1.8-3.2c-1.7-9,4.5-19.1,14-20c8.9-0.9,16.5,6.1,18,14.5c0.4,2.4,3.6,2.3,4.7,0.6
			c7.4-10.7,19.9-19.5,33.5-15.5c12.4,3.7,20,20.7,7.8,29.6c-2.4,1.7-1,5.3,2,4.7c14.3-2.7,29.6,12.7,23.5,27
			c-4.8,11.2-19.9,15.9-30.2,9.6c-2.2-1.3-4.7,1.3-3.5,3.5c3.4,6.1,1.6,14.9-5,18.2c-6.7,3.3-14.6-0.8-17.5-7.1
			c-1.1-2.4-4.5-1-4.6,1.2c-0.5,13.2-11,25.6-24.5,26.6c-11.8,0.9-23-6.8-27.3-17.5v9.5C6.7,411.7,17.7,417,29,415.6z"/>
	</g>
	<g>
		<path class="st0" d="M770.7,303.2c-10,5.4-13.7,19.4-7.5,28.7c-13.5,5.5-24.5,18.3-20.3,33.9c3.3,12.3,16.8,18.7,27.7,13.5
			c0.9,12.3,12.9,20.5,25,16c1.1,2.7,2.6,5.2,4.4,7.5v-9.5c-0.3-0.6-0.5-1.3-0.7-1.9c-0.5-1.5-2.1-2.2-3.5-1.4
			c-10.5,5.5-22.3-2.7-20.3-14.5c0.4-2.4-2.1-3.9-4-2.3c-10.7,9-24.4-1.4-24.6-13.6c-0.2-12.3,10.1-20.9,21-24.2
			c1.7-0.5,2.4-2.7,1.1-4.1c-7-6.9-4.1-19.9,4.6-24.1c10.5-5.1,22.6,3.4,26.2,13.3c0.1,0.2,0.1,0.3,0.2,0.4v-8
			C793.9,303.4,781.6,297.3,770.7,303.2z"/>
	</g>
	<g>
		<path class="st0" d="M203.2,308.1c2.9-8.1,2.6-18.1,2.7-26.6c0-9-0.6-17.9-1.8-26.8c-0.2-1.4-2.2-2.3-3.2-1.2
			c-5.9,6.1-11.9,12.1-17.9,18.3c-0.8-0.3-1.8,0.4-1.4,1.5c0,0,0,0,0,0c-4.9,5.1-9.8,10.4-14.5,15.7c0,0.1-0.1,0.1-0.1,0.2
			c-0.6-0.3-1.4-0.2-1.7,0.6c-0.2,0.5-0.5,1.1-0.7,1.6c-0.4,0.1-0.8,0.4-0.9,1c0,0.3,0,0.7,0,1c-8.8,19.6-15.6,40.4-23,60.5
			c-3.8,10.3-7.6,20.7-11.4,31.1c-3.9,10.6-8.7,21.3-11.7,32.2c-5.3-1.2-9.1,3.8-8.8,9c0.1,1.5,0.5,2.8,1.1,4
			c-3.9-0.3-6.5,3.9-6.1,7.9c0.1,1,0.4,2,0.8,2.9c-4,5.8-11.5,16.7-8,24.1c3,6.3,14,9.6,19.9,11.6c4.6,1.6,9.4,2.9,14.2,3.8
			c3.2,0.6,7.5,1.9,10.5,0c2.6-1.6,3.5-5.3,4.5-8.1c1.9-5.1,3.1-10.3,4.1-15.6c4.1-2.2,7-7.3,5-11.6c4.4-3,6.4-9.6,2.3-13.6
			c-0.1-0.1-0.2-0.2-0.3-0.2c8.3-21.2,16.2-42.7,24.1-64.1c3.9-10.6,7.9-21.3,11.7-31.9c2-5.5,4-11.1,6-16.6
			c1.1-3.2,2.7-6.4,2.9-9.8C202.1,309.1,202.9,308.8,203.2,308.1z M200.6,259.5c0.7,5.5,1.1,11.1,1.3,16.7c-0.1,0-0.1,0.1-0.2,0.1
			c-5.3,3-11.7,3.1-15.9-1C190.7,270,195.7,264.7,200.6,259.5z M133.1,386.5c3.8-10.3,7.7-20.7,11.5-31c7-18.8,14.7-37.7,20.6-56.9
			c1.1,1.6,2.6,2.8,4.6,3.3c1.7,0.4,3.5,0.3,5.1-0.2c-7.8,19.5-14.4,39.5-21.6,59.3c-3.9,10.7-7.7,21.3-11.6,32
			c-3.7,10.2-8.6,20.6-10.9,31.3c-0.1,0.3,0,0.6,0.1,0.8c-3.5-1.6-6.9-3.5-10.1-5.8C125.7,408.7,129.1,397.3,133.1,386.5z
			 M177.5,301.6c0.5,1.9,1.7,3.6,3.5,4.5c1.8,0.9,4,0.8,5.8-0.1c-9.4,18.6-16.5,38.5-23.5,58c-7.7,21.1-14.8,42.5-21.4,64
			c0,0.1-0.1,0.3-0.1,0.4c-3.4-0.7-6.6-1.7-9.8-3c0.5,0,0.9-0.2,1.1-0.7c5.3-10.2,8.4-22.2,12.3-33.1c3.7-10.3,7.4-20.6,11-30.9
			C163.5,341,171.2,321.5,177.5,301.6z M143.5,466.7c-0.7,2.3-1.5,6.6-3.1,8.5c-4.7,5.3-17.4-0.1-22.8-2c-5.2-1.8-14-4.2-17.4-8.8
			c-3.5-4.8,2.6-15.8,5.6-21.3c3.8,4.7,11.3,7.4,15.9,9.3c6.4,2.6,16.1,6.9,23.9,5.6C145,461,144.4,463.9,143.5,466.7z M125.1,450.3
			c-4.4-1.7-9.4-3.6-13.3-6.4c-4.1-2.9-7.5-9.8-1.2-12.3c3.3,4.5,9.9,6.8,14.7,8.6c7.3,2.7,18.2,9.1,26.5,6.4
			C155.1,460,130.9,452.5,125.1,450.3z M144.9,443.2c-5.1-0.8-10.1-3.3-14.9-5.1c-4-1.5-8.3-2.8-12-4.9c-2.6-1.5-5.1-3.4-5.7-6.6
			c-0.5-3.2,0.8-7.3,4.7-7.7c-0.1,1.4,1.1,2.2,2.3,2c9.4,8.7,21.4,12.9,34.2,12.5c0.2,0,0.3,0,0.4-0.1c0.1,0.2,0.2,0.3,0.3,0.5
			C160.1,440,149.6,444,144.9,443.2z M194.4,317.2c-2,5.5-4,11.1-6,16.6c-3.8,10.7-7.7,21.3-11.6,32c-7.8,21.3-15.9,42.5-23.8,63.7
			c-2.8,0-5.6-0.2-8.3-0.6c6.5-21.5,13.5-42.8,21.2-63.9c7.4-20.3,16.1-40.2,23.1-60.7c0.1-0.1,0.3-0.2,0.4-0.4
			c0.9,1.9,2.6,3.4,4.6,4.3c1,0.4,2.2,0.7,3.4,0.7C196.1,311.5,195.4,314.5,194.4,317.2z M195.3,305.2c-2.3-0.7-4-2.3-4.3-4.7
			c0.1-1.7-2.4-2.3-3-0.7c-0.8,2.3-3,4.4-5.7,3.5c-2.5-0.8-3.3-4.2-2.1-6.4c0.4-0.6,0.1-1.3-0.4-1.6c-0.6-0.9-2-1.2-2.7-0.2
			c-1.5,2.1-3.5,3.8-6.2,3.4c-2.2-0.3-3.9-1.8-4.6-3.8c0.3-1.2,0.7-2.3,1-3.5c0.6,0.5,1.5,0.7,2.2,0.1c4.9-4.6,9.6-9.4,14.3-14.2
			c4.3,5,12.5,7.1,18.1,3.4c0,0.9,0,1.9,0,2.8c-0.1,7-1.4,14.1-1.6,21.1C198.7,305.3,197.4,305.9,195.3,305.2z"/>
	</g>
	<g>
		<path class="st0" d="M184.8,9.5c1.3-0.3,2.6-0.7,3.9-1.2c-4.6,5.9-8,12.5-10.5,19.6c-2.2-11.5-14.4-23.4-25.7-14.8
			c-5.1,3.9-4.5,10.9-0.5,15.3c6.2,6.7,16,5,23.8,2.3c0.1,0.7,0.1,1.4,0.1,2.1c0,0.5,0.2,0.9,0.6,1.1c-2.4,9.1-3.9,20.2-1.1,29
			c0.5,1.6,2.8,1.3,2.8-0.4c0.5-10.5-0.4-20.1,2.5-30.5c2.6-9.1,7-17.6,12.4-25.4c-3.7,8.3-4.4,18.9,6.2,19.9c5,0.5,10-2.1,12.4-6.6
			c1.4-2.7,1.8-5.6,1.6-8.5c5.9,4.5,15.4,6.1,20.5,2.5c3.9-2.7,4.1-7.5,1.1-11.1c-0.9-1-1.9-1.9-3-2.7h-7.4c1.2,0.5,2.3,1,3.5,1.7
			c1.7,1,4.3,2.5,5,4.4c2,5.3-4,6-6.7,6c-3.9,0-7.8-1.8-10.7-4.3c-1.6-1.3-2.6-3.1-3.9-4.6c1.3-0.7,2.4-1.8,3.3-3.2h-19.4
			c-2.2,1.9-4.7,3.4-7.4,4.4c-4,1.5-11.7,3.4-14.2-1.4C173.3,2,173.2,1,173.2,0h-4.3c0,1.4,0.4,3,1.1,4.7
			C172.5,10.2,179.6,10.6,184.8,9.5z M157.8,27.9c-5.7-3-7.2-11.1-0.1-13.2c8.6-2.6,15.3,4.7,17.5,12.4
			C169.6,28.5,163.2,30.8,157.8,27.9z M194.9,12.1c0.8-3.8,2.6-7.1,5.1-10c0.2,0.2,0.4,0.3,0.7,0.5c2.4,1.6,5.2,2.1,7.7,1.7
			c0.3,1.2,0.8,2.3,1.5,3.4c0.8,6.9-1,15-9.2,14.9C194.9,22.6,193.9,16.7,194.9,12.1z"/>
	</g>
	<g>
		<path class="st0" d="M240.2,784.4c0.8-6.2-3.9-10.9-9.9-11c-3.9-0.1-7,1.4-9.7,3.7c1-7.4-2.5-15.9-9.6-18.6
			c-5.4-2.1-8.8,2.4-10.7,7c-1.4,3.4-1.8,7.1-1.3,10.7c-2-3-4.5-5.6-7.9-7.1c-4.6-2-10.8-1.4-13.8,3.1c-2.8,4.1-1.6,9.8,1.5,13.4
			c1,1.1,2.1,2,3.3,2.8c-6.7,1.3-13.2,5.2-13.1,11.5h4.3c0.2-3.5,4-6.5,7.3-7.5c3.9-1.1,7.9-0.3,11.9-0.8c0.3,0,0.5-0.2,0.6-0.3
			c0.7,0,1.4,0,2.2,0c-0.4,2.6,0.2,5.2,1.7,7.4c-0.4,0.4-0.9,0.8-1.3,1.1H215c0.3-0.5,0.6-1,0.8-1.6c0.1-0.3,0.2-0.6,0.3-0.9
			c0.1,0.3,0.4,0.5,0.7,0.5c2.6,0.4,5.1,1,7.6,2h7.4c-1.9-1.3-4.2-2.3-6.5-3C232.2,795.7,239.2,791.9,240.2,784.4z M197.6,786.4
			c-0.7,0.8-1.2,1.6-1.6,2.5c-4.1-0.5-8.3-1-11.9-3.3c-3.6-2.3-6.6-8.1-3.2-11.8c3.1-3.3,8.3-2,11.4,0.6c3.3,2.7,5.2,6.7,7,10.4
			c0,0,0,0,0,0C198.7,785.3,198.1,785.8,197.6,786.4z M203.1,798.2c-3.2-2.2-4.1-6.2-1.4-9.2c1.5-1.6,3.5-2.5,5.5-2.6
			c0,0.7,0.4,1.5,1.2,1.9C215.2,791.7,210.4,803.3,203.1,798.2z M204.3,782.6c-1.8-3.7-2.7-7.6-2-11.7c0.8-4.7,3.5-11.4,9.3-7.9
			c4,2.4,5.9,7.7,5.5,12.1c-0.4,4-2.4,6.4-4.7,8.9C210.1,782.4,207.1,782.1,204.3,782.6z M218.6,793.2c-0.1-1-1.2-1.7-2.1-1.2
			c-0.3-1.6-0.8-3.1-1.7-4.4c0.3,0,0.6-0.1,0.8-0.4c2.4-3.2,5-6.6,8.5-8.7c3.6-2.1,9.3-2.6,11.7,1.6c2.4,4.3-1,9.1-4.9,11.2
			C229.7,791.9,218.8,795.3,218.6,793.2z"/>
	</g>
	<g>
		<path class="st0" d="M534.1,548c2,1.2,3.5-1.9,1.7-3.2c-10.4-7.1-22.9-12.1-35.9-14.6c7.2-5.6,10.6-15.4,7.8-24.4
			c-2.9-9.1-12.8-18.3-23-15.6c-9,2.3-10.1,12.6-8,20.2c2.1,7.4,7.2,14.5,14,18.4c-12.2-1.2-24.5-0.1-35.8,3.7
			c4.2-4.7,6.4-10.6,2.9-16.9c-2.5-4.5-7.6-6.2-12.5-5c-3.5,0.8-6.4,2.9-8.8,5.5c1.1-5.2,0.8-10.8-1.7-15.3c-3.4-6-10-8.5-16.5-5.8
			c-8.3,3.5-11.4,11.9-9.8,19.7c-1.9-1.1-4-1.9-6.2-2.2c-6.3-1.1-13.4,1.4-15.9,7.5c-2.3,5.5-0.2,12.2,4,16.2
			c3.2,3.1,7.3,4.6,11.6,5.1c-3.7,1.9-7,4.4-9.2,8c-3,4.9-3.6,11.8,0.1,16.5c5.7,7.1,17,5.3,23.5-0.6c0.5,8,5,15,14.6,13
			c9-1.8,12.1-9.3,10.9-16.6c2.2,1.2,4.7,2,7.2,2.3c7.5,0.6,14.1-4.5,15.8-11.8c1.7-7.1-2.3-13.3-9.3-15.3c-0.5-0.1-1.2-0.3-2-0.4
			c13.1-3.1,26-4.7,39.7-3C507.9,535.2,521.5,540.4,534.1,548z M419.1,499.3c6.5-3.2,12.2,1.1,13.5,7.7c1,5.2-1,10.1-1.6,15.2
			c-4.2-1.3-8.7-0.6-12.4,1.6c-1.7-2.1-3.6-4.1-5.6-5.9C410.6,511.1,412,502.9,419.1,499.3z M395.7,535.5c-4.5-2.8-8-9-5.5-14.2
			c2.7-5.6,10.2-5.7,15.2-3.5c2.3,1,4.2,2.5,6,4.2c1.1,1.6,2.3,3,3.8,4.2c-1.8,1.8-3.2,4-3.9,6.6c-0.4,1.6-0.5,3.3-0.4,5
			c-0.8,0.2-1.5,0.5-2.3,0.7C404.2,538.6,399.6,538,395.7,535.5z M416.8,558.4c-1.6,2.4-3.4,4.6-6.4,6.1c-5,2.5-13.2,2.9-15.5-3.5
			c-3.8-10.6,8.6-16.1,16.9-18.9c1.3,3.9,4.1,7.3,7.9,9.1C418.4,553.2,417.4,555.7,416.8,558.4z M415.5,539.9c0.2-0.6,0-1.3-0.4-1.8
			c-0.2-1.3-0.1-2.5,0.1-3.8c1.3-6.1,8.2-9.7,14.1-8.4c5.5,1.2,8.8,6.3,9.3,11.7c-0.9-0.2-1.8,0.3-2.1,1.4c-1.4,5.8-6.9,10.2-13,9
			C419.4,547.2,416.5,543.8,415.5,539.9z M430.8,574.1c-5,1.3-8.9-1.5-10.1-6.4c-1.3-5.2,0.5-10.4,2.8-15.1c0.1-0.1,0.1-0.3,0.2-0.4
			c3,0.4,6-0.2,8.6-1.6c1.2,2.8,2.9,5.4,5.1,7.6C439.7,564.6,438.9,572,430.8,574.1z M456.4,540.9c5.4,2.6,6.3,8.5,3.6,13.4
			c-6.6,11.8-20.6,3.4-24.4-6c1.7-1.5,3.1-3.3,3.9-5.4c0.3,0,0.5-0.2,0.6-0.5c0.1-0.3,0.2-0.6,0.3-0.9c0.3,0,0.6,0,0.8-0.2
			c0.1,0,0.1,0,0.2,0c1.5-0.5,3-1.2,4.6-2C450.1,539.4,455.7,540.5,456.4,540.9z M444,536c-1.1,0.2-2,0.5-2.8,1
			c0.2-5.3-2.4-10.5-7-13.3c2.4-2.8,4.6-5.9,7.9-7.8c4.9-2.9,11.8-2.3,13.1,4.1C456.8,528.1,450.1,532.3,444,536z M482.9,514.9
			c-3.3-5.9-5.9-16.3,1.7-19.8c8.8-4,17.6,5.6,19.3,13.6c1.6,7.2-1.1,13.8-6.1,18.8C491.2,525.5,486.3,521,482.9,514.9z"/>
	</g>
	<g>
		<path class="st0" d="M396.9,471.4c7.4-5,16.7-10.4,22.3-17.6c0.1,0.1,0.2,0.2,0.3,0.3c8.1,6.1,17,11.1,26.3,15.1
			c1.5,0.6,2.9,0,3.4-1.1c5.9,0.9,12.1,0,18-0.1c7.4-0.1,14.7,0.1,22.1,0.8c14.9,1.3,30,4.4,43.7,10.7c21.5,9.8,38.6,26.6,46.3,48.9
			c0,0.8,0.1,1.5,0.1,2.3c0,0.8,0.5,1.3,1.1,1.5c0.1,0.2,0.1,0.4,0.2,0.7c0.6,2.1,3.8,1.2,3.3-0.9c-0.3-1.5-0.7-3.1-1.2-4.6
			c2.5-39.5-18.5-81.3-48.3-106.1c-30.6-25.4-75.7-38.2-114.7-27.7c-1-0.3-2,0.1-2.6,1c0,0.1-0.1,0.1-0.1,0.2
			c-0.1,0.1-0.1,0.2-0.2,0.3c-2.9,8.5-5.4,17.3-7.1,26.2c-0.4-0.2-0.8-0.3-1.4-0.2c-7.6,1.1-15.2,2.4-22.8,3.8
			c-1.8,0.3-2.5,3-1.1,4.1c3.4,2.9,6.9,5.7,10.6,8.1c2.7,1.8,5.6,4,8.8,4.9c-4,8.7-7.5,17.7-10.7,26.7
			C392.6,470.6,395.1,472.6,396.9,471.4z M423.7,424.4c-0.1-0.3-0.3-0.6-0.6-0.8c0.1-0.4,0.2-0.8,0.3-1.2c0.1,0.7,0.3,1.5,0.4,2.2
			C423.8,424.5,423.8,424.4,423.7,424.4z M461.2,423.6c28.4,0,55.9,7.7,78,26.1c14.4,12,25.4,27.4,32.4,44.5
			c-24.6-42.6-85.6-50-131.4-50.1C449,439.3,456.1,432.1,461.2,423.6z M453,423.9c0.8,0,1.6,0,2.4,0c-0.4,0.5-0.8,1-1.2,1.6
			C454,424.8,453.6,424.3,453,423.9z M536.5,477.3c-12.6-6-26.4-9.4-40.2-11.1c-8.1-1-16.2-1.4-24.3-1.4c-7.2,0-15.5-0.6-22.5,1.4
			c0-0.2-0.1-0.3-0.2-0.5c-1.8-4-3.6-8-5.5-12.1c-1-2.3-1.9-4.8-3.2-7c29.3,1.7,59.5,2.3,86.7,14.7c21.2,9.6,39.8,26.2,47.3,48.4
			C565.5,495.7,551.4,484.4,536.5,477.3z M533.4,425c14.6,12.6,26.2,28.4,34.1,46c3.5,7.9,6.1,15.8,7.9,23.9
			c-18-45-63.6-78-113.5-73.8c-0.2-1-1.1-1.8-2.3-1.8c-5.2-0.2-10.4-0.2-15.6-0.1c-3.5,0.1-7.6-0.6-10.2,2c-0.9-8.8-7-18.2-12-25.6
			C461.8,390.2,502.2,398.1,533.4,425z M394,430.1c-0.7-0.5-1.4-1-2.1-1.6c0.8-0.1,1.5-0.3,2.3-0.5
			C393.9,428.7,393.8,429.5,394,430.1z M407.6,438.1c-0.2,0.3-0.3,0.7-0.5,1c-0.5-0.6-1.1-1.1-1.7-1.6
			C406.2,437.7,406.9,437.9,407.6,438.1z"/>
	</g>
	<g>
		<path class="st0" d="M29.8,182.5c2.2-2.2-0.4-6.4-3.2-4.4c-6.3,4.5-21.8,13-26,1c-1.4-4.1,0.6-9.3,1.3-13.4
			c0.7-4.5,1.2-9,1.4-13.6c0.3-9.4-0.6-19-3.3-28v63.3c7,5.7,17.1,2.7,24.9-1.7c-4.2,11.5-13.6,19.1-24.9,23.6v6.1
			c1.6-0.6,3.3-1.3,4.8-2C17.4,207.5,28.8,196.6,29.8,182.5z"/>
	</g>
	<g>
		<path class="st0" d="M725.2,84.6c-10.2,4.8-17.9,12.3-23.3,21.2c-0.4-0.5-0.9-0.8-1.7-0.8c-5.9,0-11.8,0.1-17.7,0.2
			c-1.9,0-3.4,2.7-1.7,4.1c3.9,3,7.4,6.3,10.6,9.9c-4.9,1-9.6,2.6-14.1,5.1c-1.6,0.9-1.5,3.2,0,4.1c5.1,3.1,10.1,6.3,15.3,9.2
			c-0.3,7.7,0.5,15.4,2.5,22.8c6.7,24.3,24.9,44.4,48,53.7c-5.4,9.2-11.5,24.3-2.2,32.4c1.3,1.1,3.8,0.1,3.1-1.8
			c-1.9-5.4-3.7-9.9-2.7-15.7c0.8-4.8,2.8-9.3,4.7-13.7c3,1.1,6.1,2,9.2,2.6c5.9,1.3,11.9,2,18,2c-3.1,7.9-3.7,20,3.3,25.1
			c1.4,1,2.8-0.6,2.6-2c-0.7-4-3.2-7.4-3.6-11.7c-0.4-4,0.1-7.8,1.4-11.5c7.9-0.3,15.8-1.8,23.2-4.6v-6.1
			c-14.4,5.6-31.8,6.1-45.4,2.7c-28-7-50.2-30.3-55.6-58.7c-5.7-29.7,10.6-65.2,43.7-68c30.6-2.6,51.8,26.4,54.6,54
			c0.9,8.7,0.5,17.5-1,26.1c-1.1,6.2-3.3,13,0.6,18.8c0.9,1.4,2,2.5,3,3.4v-63.3c-1.7-5.6-3.9-11-7-16
			C779,84.9,750.6,72.6,725.2,84.6z M692.9,133.5c-3.2-2.3-6.4-4.5-9.7-6.6c3.7-1.6,7.4-2.7,11.4-3.3
			C693.8,126.8,693.2,130.1,692.9,133.5z M696.3,117.8c-2.3-2.8-4.9-5.4-7.5-7.8c3.7-0.1,7.3-0.1,11-0.3
			C698.4,112.3,697.3,115,696.3,117.8z"/>
	</g>
	<g>
		<path class="st0" d="M727.9,116.5c-0.3-3.5,2.6-7.9,6.6-6.5c2.9,1,4.1,4.8,2.7,7.4c-1.4,2.8,2.6,5.1,4.2,2.4
			c3.2-5.3,0.1-13-5.9-14.7c-6.7-1.8-13.4,5.2-11.6,11.8C724.5,119.1,728.1,118.8,727.9,116.5z"/>
	</g>
	<g>
		<path class="st0" d="M759.3,151.8c-11.6-1.8-25.9,7.9-32.1,17.3c-6,9.2-3.5,21.3,7.4,25.1c3.9,1.4,9.1,1.4,12.5-1.2
			c1.2-0.9,2.2-2.3,2.6-3.8c2.1,1,4.6,1.5,6.3,1.4c3.6-0.2,6.9-2.4,8.8-5.5c1.7,0.9,3.7,1.4,5.7,1.1c3-0.3,5.1-1.8,6.5-3.8
			c1,0.2,2.2-0.4,2.4-1.8C780.8,167.9,772.5,153.9,759.3,151.8z M770.2,181.5c-1.4,0.2-2.7-0.3-3.8-1c0-0.3,0-0.7,0-1
			c0-1.4-1.4-2.2-2.6-2.1c-0.4-0.9-0.7-1.9-0.9-2.9c-0.2-1.9-2.9-2.5-3.5-0.5c-0.9,3,0,5.9,1.7,8.2c-0.7,1.6-1.8,2.9-3.6,3.7
			c-1.8,0.8-6.8,0.8-8.3-1.4c0.1-0.3,0.2-0.6,0.1-1c-0.2-1.2-1.1-1.7-2.2-1.8c-0.5,0-1.2,0.3-1.5,0.8c-1,2.2-0.1,4,1.6,5.4
			c0.1,2.2-5.9,3-6.8,3c-1.9,0-3.9-0.5-5.6-1.3c-3.6-1.7-6.3-5.1-6.6-9.2c-0.5-8,6.9-14.5,13-18.5c7-4.6,14.7-8,22.8-3.8
			c8,4.1,10.2,12.2,11.1,20.3C774,180,772.1,181.3,770.2,181.5z"/>
	</g>
	<g>
		<path class="st0" d="M128,231.9c9.3-0.3,18.5-5.3,22.1-14.2c4-9.9,0.8-20.8-4.4-30c8.2,6,19.9,7.2,29.2,3.3
			c11.6-4.9,18.7-17.6,17.7-30c-1-12.5-10.9-22.8-23-25.5c-4.2-0.9-8.2-0.8-12.1,0.1c5.7-13.8,2.9-31.7-11.5-38.5
			c-10.4-4.9-23.7-0.1-31.4,7.7c-5.4,5.4-8.4,12.8-8.7,20.3c-9.6-16.5-35.5-29.3-47.5-8.4c-9.1,15.9-1.2,35.3,13.7,41.8
			c-7.6,2.2-14.7,6.2-19.7,12.3c-7.1,8.8-9.6,21.9-2.9,31.6c11.2,16.3,39,13,49.6-2.2c-0.1,6,1.5,12.2,3.8,16.7
			C107.8,226.5,117.3,232.3,128,231.9z M165.5,139.7c11.1,1.1,20.9,10,22,21.3c0.9,9.8-4.4,20.2-13.3,24.5
			c-9.2,4.5-18.7,2.2-26.5-3.2c4,0.2,8-0.4,11.8-1.9c8.4-3.4,15-11.1,15.2-20.4c0.2-8.5-4.8-16.6-13.2-19.1
			c-1.2-0.3-2.4-0.6-3.6-0.7C160.2,139.7,162.8,139.5,165.5,139.7z M169.2,161.3c-1,7.7-7.5,13.1-14.7,15c-7,1.7-13.8-0.2-19.9-3.4
			c-0.8-1.1-1.7-2-2.6-2.9c1.4-1.6,2.6-3.3,3.5-5.3c1.5-3.5,1.8-7.1,1.1-10.5c0.3,0,0.6-0.2,0.8-0.4c1-1,2.1-2,3.1-2.9
			c0.7,0.7,1.7,1,2.8,0.4c3.1-1.4,5.8-3.5,8.1-6c1.6-0.3,3.3-0.5,5-0.4C164.9,145.5,170.2,153.2,169.2,161.3z M108.8,177.5
			c6.1,1.4,12.9,0,18.3-3.4c0.2,0.2,0.4,0.5,0.6,0.6c1.7,1.3,3.6,2.5,5.5,3.5c3.9,9.2,5.2,22.6-5.5,25c-13.1,3-19.3-15.4-18.8-25
			C108.9,178,108.9,177.7,108.8,177.5z M118.3,143.2c0.3,0.9,1.1,1.7,2.3,1.8c10.4,0.8,13.9,13.7,7.7,21.1c-5.8,7-17.9,9.2-24.8,2.6
			c-5.8-5.6-6.9-15.6-0.7-21.4C107.4,143,112.7,142.8,118.3,143.2z M115.7,127.4c1.3-2.6,3-5,5.1-6.9c5.3-4.9,12.9-6.6,18.8-1.5
			c10.5,9.1,3.9,22.7-5.2,29.7c-2.8-4.9-7.7-8.4-13.8-8.8c-0.1,0-0.1,0-0.2,0c-2-1.4-4.5-2-7.1-1.9
			C112.4,136,115.4,127.9,115.7,127.4z M118.3,108.4c6.7-6.8,19-11.3,27.7-5.5c12.9,8.7,11.1,24.8,3.3,36c-0.3,0.1-0.5,0.3-0.8,0.4
			c1.2-3,1.8-6.2,1.6-9.6c-0.5-8.6-7-17-15.7-18.6c-9.2-1.7-18.2,5.3-22.1,13.2c-0.5,1-1.3,3.2-1.9,5.7
			C110.1,122.1,112.3,114.4,118.3,108.4z M107.6,138.9c-4.3,1.3-8.3,3.9-10.6,6.8c-2.4,3.1-3.5,6.8-3.7,10.5
			c-0.1-0.1-0.2-0.2-0.3-0.3c-0.4-0.7-1.1-1.2-2-1.2c-0.3,0-0.6,0-0.8,0.1c-10.7-4.4-20.9-15.1-12.5-26.8c4.3-6,12.3-6.3,18.4-2.8
			C101.6,128.4,104.4,133.6,107.6,138.9z M62.5,120.1c7.4-14.2,21.9-9.9,31.9-1.1c-7.2-2.9-15.1-2.1-20.9,5.7
			c-8.6,11.7-2,26.4,9.7,31.6c-0.4,0.1-0.7,0.3-1.1,0.5c-0.7,0-1.5,0.1-2.2,0.2C64.8,152.1,54.3,136,62.5,120.1z M52,196.1
			c-3.6-9.2,0.8-19.8,8.1-25.8c3.6-3,7.7-5,12-6.4c-1.5,1.6-2.9,3.3-4,5.1c-4.5,7.1-7.1,18.4-1.1,25.5c5.9,6.8,17.4,7.1,25.3,4.6
			c1.4-0.4,2.8-1,4.1-1.7C85.6,210.6,59,213.8,52,196.1z M104,179.5c-1.9,2.6-2.6,6.6-4.5,9c-5,6.3-15.4,7.8-22.8,5.7
			c-10.1-2.9-8.7-14.5-4.4-21.8c4.4-7.5,11.2-11,19.3-13c0.9-0.2,1.5-0.9,1.6-1.7c0.2,7.2,4.2,14.4,10.7,17.9
			c0.4,0.2,0.7,0.4,1.1,0.5c-0.4,0.3-0.8,0.7-0.9,1.4C104.1,178.2,104,178.8,104,179.5z M107.4,214.4c-2.1-4.3-3.1-9.2-3-13.9
			c0.1-3,1-5.9,1.5-8.8c3.8,10.7,12.7,20.4,24.3,16.7c10.5-3.4,12.4-14.2,9.8-24c4.3,9,9.2,19,6.4,29c-2.4,8.5-10.6,13.3-19.1,13.4
			C118.6,226.9,111.2,222.2,107.4,214.4z"/>
	</g>
	<g>
		<path class="st0" d="M174.2,726.9c-5.7,2.2-9.1,8-10.6,13.9c-1.4-10.1-6.6-19.9-12.3-27.9c-2.5-3.5-5.6-6.6-8.8-9.6
			c4.7,0.8,9.8-0.3,13.3-3.7c4.2-4.2,4.8-11.3,1.4-16.2c-3.8-5.4-11.2-5.5-16.2-1.9c-4.7,3.4-6.3,9.1-5.9,14.6
			c-4.5-4.6-8.3-9.7-10-16.2c-1.5-5.6-1.5-11.1-0.5-16.4c2.3,2.2,5.4,3.9,7.2,4.5c7,2.5,15.1,0.2,18.2-7c2.5-5.9-0.1-12.5-6.4-14.5
			c-4-1.3-8.9-0.5-13.1,1.7c2.2-3.9,4.9-7.6,7.9-11c3.8-0.1,7.6-0.7,11.3-1.9c1.6-0.5,2.2-2.5,1-3.7c-3-3.1-5.8-6.3-8.9-9.3
			c18.9-10.6,33.2-28.6,39.6-49.3c6.6-21.4,5.6-47.9-13.1-62.8c-16.3-13-39.8-14.6-57.3-3.1c-18.7,12.2-28.4,35.1-25.4,57.1
			c3.7,27,23.5,47.7,48.2,57.4c-4.2,2.4-7.3,5.9-9.8,10.4c-0.7,1.3-0.1,2.9,1.3,3.3c2.9,1,5.9,1.6,8.8,1.8
			c-4.8,4.7-8.6,10.5-11.1,16.6c-1.2-4.7-4-9.3-8.2-11.2c-5.2-2.3-10.6,0.6-12.5,5.7c-2,5.4-0.1,11.4,5.2,14.1c3.9,1.9,9,1.7,13-0.3
			c-2.6,11.8-0.5,24.3,8.2,34.2c1.1,1.3,2.3,2.5,3.6,3.7c-5.4-1.7-11.3-2.2-16.1,1.1c-4.4,3-7.4,9.1-4.8,14.2
			c2.5,5,8.9,6.3,13.9,4.8c6.6-2,10.3-8.8,12.8-14.8c1.7,1.6,3.4,3.2,5,4.9c4.8,5.3,8.8,11.4,11.8,17.9c1.4,2.9,2.4,5.9,3.2,9
			c-2.4-2.9-5.5-5-9.5-5.6c-6.4-1-11.8,3.6-12.8,9.8c-1,5.9,2.8,11.1,8.6,12.3c7.1,1.5,10.7-3.2,14.9-7.8c0,9.2-3.9,17.6-14.1,22.3
			c-1.6,0.7-0.8,3.6,0.9,3.3c10.1-1.2,16.6-11.3,17.8-20.7c0.1-0.5,0.1-1.1,0.1-1.6c5.2,3.9,11.2,6.6,17.9,4.2
			c7.4-2.8,9.1-11.3,7.4-18.3C187.4,727.6,180.8,724.3,174.2,726.9z M109.3,599.8C102,592.3,96.2,583,93,572.9
			c-6.3-20-0.9-42.2,14.7-56.5c14.6-13.4,36.3-15.4,53.1-4.8c19.5,12.3,21.6,36.7,15.9,57.3c-5.9,21.5-20.7,39.7-40.3,50.1
			c-0.1-0.1-0.2-0.1-0.3-0.2C126.7,613.1,117.1,607.8,109.3,599.8z M129.3,631.7c1.7-2.8,3.8-5.4,6.2-7.8c0.6,0.4,1.3,0.6,2.1,0.5
			c2.2,2.7,4.7,5.1,7.2,7.6C139.6,633.1,134.4,633,129.3,631.7z M126.6,656.2c3.1-2.1,5.6-5,9.5-6.1c4.7-1.2,11,0.8,10.7,6.6
			c-0.2,4.7-4.6,8.2-9.1,8.3c-1.7,0-10-2.4-12.3-5.4C125.8,658.5,126.2,657.3,126.6,656.2z M109.6,658.7c-3.6-1.8-4.8-5.9-3.1-9.5
			c1.9-4,6.3-4.3,9.3-1.3c2.5,2.5,3.7,6,5.1,9.2C117.4,659.1,113.6,660.7,109.6,658.7z M127.4,713.9c-3.1,2.1-8.3,3.2-11.3,0.1
			c-3.9-4,0.7-9.7,4.8-11c4.6-1.5,9.6,0.2,14,1.9C132.9,708.2,130.8,711.7,127.4,713.9z M139.7,699.4c-1.1-4.8-1-10.5,3-14
			c3.4-3,9.2-3.3,11.5,1.2c1.9,3.6,1,8.1-2,10.7C148.7,700.3,143.9,700.5,139.7,699.4z M152.3,747.3c-3.9,3.9-11.6,2.6-12.7-3.3
			c-1.1-5.9,4.3-10.2,9.9-8.7c3.9,1,6.6,3.8,8.8,7C155.3,742.6,154.4,745.3,152.3,747.3z M176.1,750.1c-3.5,0-6.8-1.3-9.9-3
			c0-0.1,0.1-0.2,0.1-0.3c1.8-4.8,2.1-10.5,6.3-14.1c5.4-4.7,11.9-2.1,12.8,4.9C186.2,744.2,183.4,750,176.1,750.1z"/>
	</g>
	<g>
		<path class="st0" d="M5.1,586.2c0.8,0.7,1.6,1.5,2.4,2.2c3,2.7,5.9,6.1,9.4,8.2c2,1.2,3.8-1.5,2.4-3.1c-2.7-3.2-6.6-5.6-9.8-8.2
			c-0.4-0.3-0.8-0.7-1.3-1c1.6-1.1,3.2-2.2,4.6-3.5c2.4-0.8,4-2.9,5.2-5.5c0.8-1,1.5-2.1,2.3-3.2c5.1,1.2,10.2,2.5,15.3,4
			c9.3,2.8,18.4,7.2,27.8,9.4c2.3,0.6,3.9-2.7,1.7-4c-8.4-4.8-19-7.2-28.3-9.7c-4.8-1.2-9.6-2.4-14.4-3.3c2.3-4.4,3.9-9.1,4.5-14
			c0.3,0,0.6-0.1,0.9-0.1c3.7-0.6,7.4-1.3,11-2c4-0.8,9.6-1.1,10.7-5.9c0.2-1.1-0.2-2-1.1-2.7c-0.2-0.2-0.5-0.3-0.7-0.5
			c-0.9-0.7-2.2,0-2.5,1c-1,3.4-10.8,4.2-13.6,4.9c-1.6,0.4-3,0.8-4.5,1.2c0-0.6,0-1.3,0-1.9c-0.1-4.5-1.2-9.4-3-14.1
			c4.3-3.1,8.6-6.3,12.9-9.4c3.3-2.4,6.6-4.8,9.9-7.2c1.9-1.3,8.1-7.3,10.5-6.8c1.6,0.4,2.8-1,2.5-2.5c-0.1-0.3-0.1-0.6-0.2-1
			c-0.2-1.1-1.5-2-2.5-1.9c-3.3,0.2-5.3,2.1-7.9,4.1c-4.2,3.3-8.5,6.5-12.7,9.8c-4.7,3.6-9.5,7.2-14.2,10.9
			c-2.4-4.9-5.5-9.5-9.4-13.3c2.5-6.3,4.7-12.9,6.9-19.2c1-2.9-3.5-4.1-4.6-1.3c-2.1,5.5-4.3,11.3-6.2,17.1
			c-2.8-2.1-5.9-3.8-9.3-4.8v79.4c0.7-0.2,1.3-0.5,2-0.7C3,587.2,4.1,586.7,5.1,586.2z M14.7,553c0.2,0.4,0.3,0.8,0.5,1.2
			c-0.8,0.9-1.6,1.9-2.4,2.8C13.5,555.7,14.1,554.4,14.7,553z M12.6,572.7c0.3-0.3,0.6-0.5,0.9-0.8c-0.2,0.4-0.3,0.8-0.5,1.1
			c-0.2,0.3-0.5,0.5-0.7,0.8C12.4,573.4,12.6,573.1,12.6,572.7z"/>
	</g>
	<g>
		<path class="st0" d="M794.1,508.2c0.4-4.7,0.9-9.4,1.3-14.1c0.9-9.8,3.4-21,1.9-30.7c-0.3-2.2-3.5-1.8-4.1,0
			c-3.1,9.3-2.3,21-3,30.7c-0.4,4.9-0.7,9.9-1.1,14.8c-5.3-0.1-10.6,0.8-15.5,2.8c-2.2-5.5-4.5-11-7.1-16.4
			c-0.8-1.7-3.6-0.5-3.1,1.3c1.7,5.7,3.8,11.4,5.9,17.1c-5.2,2.7-9.8,6.5-13.6,11.3c0,0-0.1,0.1-0.1,0.1
			c-5.2-4.9-10.5-9.8-15.7-14.7c-4-3.7-8.1-7.4-12.1-11.1c-3.8-3.5-8.4-6.8-11.1-11.3c-0.6-1.1-2.4-0.4-2,0.9
			c2.9,8.6,13.1,15.8,19.3,22.1c6.2,6.2,12.4,12.3,18.7,18.4c-2.7,4.6-4.4,9.8-5.1,15.1c-7.3-1.3-16.5-1.8-22.7,0.6
			c-1.1,0.4-1.3,2.1,0,2.5c3.9,1,8.2,0.6,12.2,0.9c3.4,0.2,6.7,0.8,10.1,1.2c0,5.6,1,11.2,3.1,16.4c-7.6,2.2-15.1,5.5-22.4,8.1
			c-8.8,3.1-17.9,6-26.4,9.9c-1.5,0.7-0.4,2.8,1.1,2.5c9.8-2.2,19.4-5.6,29-8.7c6.9-2.2,14.4-4,21.3-6.7c0.7,1.1,1.4,2.2,2.1,3.3
			c1.8,2.4,3.8,4.6,6.1,6.5c-4.1,6.2-7.4,13-9.8,19.9c-0.7,2,2.5,3.3,3.4,1.4c3-6.5,6.4-12.5,10.3-18.4c4.6,3,9.8,5.1,15.2,6.1
			c0.4,14.6,0.9,29.3,1.5,43.9c0.1,1.4,1.1,2.6,2.6,2.6c3.1-0.1,4.4-2.4,3.2-5.2c-0.2-0.4-0.4-0.6-0.6-0.8
			c-0.1-13.2-0.9-26.8-2.6-40c5.3,0.4,10.6-0.2,15.6-2V509c-1.6-0.5-3.3-0.9-5-1C794.7,507.9,794.3,508,794.1,508.2z M764.1,551.7
			c0.4,0.4,0.7,0.7,1.1,1.1c0.3,0.5,0.5,1,0.8,1.5c0,0.1,0.1,0.2,0.1,0.3C765.5,553.6,764.8,552.7,764.1,551.7z"/>
	</g>
	<g>
		<path class="st0" d="M439.9,626.9c-12-1.8-27-0.8-34.8,9.3c0-0.4,0-0.9-0.1-1.3c-0.2-3.8-1.3-7.9-4.4-9.5
			c1.1-6.6,2.7-13.1,6.1-18.9c3.2-5.5,13.1-13.4,16.4-3.2c0.5,1.5,2.5,0.9,2.6-0.6c0.2-7.9-9.6-9.6-15.1-6.1
			c-5.3,3.3-8.6,9.6-10.5,16.1c-0.4-7.3-2.8-14.2-9.5-18.1c-7.7-4.5-21,0.4-18.8,10.7c0.3,1.5,2.8,2,2.9,0.1
			c0.4-4.8,3.3-8.3,8.3-8.8c4.8-0.4,8.6,2.7,11.1,6.6c3.9,6.3,3.3,14.2,3.1,21.3c-1.1,0.2-1.4,1.4-1.1,2.4c0,0.1-0.1,0.1-0.1,0.2
			c-0.8,2.4-1.5,4.8-2.1,7.3c-5.7-11.8-17.8-19.6-31-20.5c-15.3-1.1-29.1,8.1-36.1,21.4c-7.2,13.6-6.7,32.1,4.6,43.4
			c8.3,8.4,21.4,11.2,33.4,9.3c-5.6,4.2-10.8,8.9-15.1,14.2c-3.9,4.8-9.7,15.8-2.9,20.8c6.4,4.7,16,0.4,21.4-3.8
			c6.4-4.9,11.6-11.4,16.1-18.2c-0.1,2-0.1,4.1-0.2,6.1c-0.1,3.7-0.6,7.9,0.8,11.4c1.6,4.1,5.9,6.3,9.6,3.1c1.9-1.6,2.5-4.2,3.1-6.5
			c1.3-5,2-10.1,2.8-15.2c3.1,8,7.6,15.3,13.4,21.6c4.4,4.7,11.7,12.6,19.1,10.8c6.8-1.7,7.1-9.4,5.2-14.9
			c-2.2-6.5-6.6-12.6-11.5-17.8c13.5,3,27.9,1.9,39.3-6.9c12-9.2,16.8-24.3,11.5-38.5C471.3,638.7,456,629.4,439.9,626.9z
			 M384.3,693.1c0,0.1,0,0.1,0,0.2c-3.9,6.3-8.3,12.3-13.3,17.7c-2.1,2.3-5.7,5.6-9.6,7.9c-0.2,0-0.3,0-0.5,0
			c-1.7,0.6-2.9,1.7-4.8,1.9c-1.9,0.2-4-0.3-5.5-1.6c-2.2-1.9-2.8-4.7-2.3-7.3c3.5-8.1,15.8-19.2,23.3-25.5c2.3-0.8,4.5-1.8,6.6-2.9
			c1.9-1.1,0.3-4.3-1.8-3.4c-13.5,5.7-31.4,7.3-42.6-4.3c-10.1-10.4-9.9-27.1-3.2-39.2c6.6-11.8,19.2-19.8,32.9-18.3
			c12.6,1.3,23.9,9.5,28.8,21.1C387.9,656.9,385.3,675,384.3,693.1z M399.3,674.8c-0.7,7.5-1.7,15-2.9,22.4
			c-0.6,3.7-1.2,7.4-1.9,11.1c-0.3,1.6-1.6,13.4-6,8.9c-1.5-1.5-0.6-7.2-0.6-9.1c0.1-4,0.2-8.1,0.4-12.1c0.4-7.7,1.1-15.5,2-23.2
			c1.2-10.7,3-21.3,5-31.9c0.3-0.3,0.5-0.8,0.3-1.4c0,0,0-0.1,0-0.1c0.7-3.7,1.4-7.4,2.2-11C405,628.8,399.8,669.8,399.3,674.8z
			 M461.6,690.4c-12.6,8.6-28.6,7.7-42.4,2.8c-2.2-0.8-4.5,1.9-2.4,3.7c5.1,4.3,9.5,9.2,13.1,14.8c1.7,2.7,3.5,5.5,4.1,8.7
			c0.1,0.7,0.3,1.3,0.4,1.7c-0.3,1.7-1.2,3.1-3.2,3.8c-3.5,1.3-7.5-0.9-10.3-3c-8.5-7.4-14.7-17.5-18.2-28.2
			c-0.3-0.9-0.9-1.3-1.6-1.3c1.3-9.3,2.4-18.6,3-27.9c0.6-8.3,1.3-16.9,1.1-25.4c7.3-11,23.3-11.5,35-9.3
			c14.3,2.6,27.8,10.9,32.9,25C478,669,473,682.6,461.6,690.4z"/>
	</g>
	<g>
		<path class="st0" d="M348.9,632.5c-7.4,4.7-12.4,15.9-5.4,23.2c8.1,8.4,26.5,2.9,31.2,14.7c0.6,1.4,2.2,1.4,3,0.6
			c0.4,0,0.8-0.1,1-0.6c5.3-10.5,6.1-23.2-1.8-32.6C370,629.4,358.3,626.5,348.9,632.5z M377.4,667.5c-2.2-4.4-6.3-6.7-11.1-8.1
			c-7.7-2.3-22.4-1.5-22.2-12.9c0.4-13.7,18.1-16.3,26.9-9.4C380.5,644.4,381.4,657.1,377.4,667.5z"/>
	</g>
	<g>
		<path class="st0" d="M454.8,645.6c-20.5-15.5-51,7.2-45.1,31c0.1,0.3,0.2,0.5,0.4,0.6c-0.1,1.6,2.1,2.8,3.5,1.4
			c6.1-5.6,14.9-3.9,22.4-3.9c6.4-0.1,13-0.9,18.2-4.9C462.7,663.4,463.4,652.1,454.8,645.6z M429.3,670.4
			c-6.3-0.2-12.9,0.2-17.6,4.6c0.5-11.6,5.1-22.6,16.3-27.7c8.7-4,28.1-4.1,29.3,9.1C458.4,670.7,438.6,670.6,429.3,670.4z"/>
	</g>
	<g>
		<path class="st0" d="M257.4,131c1.4,5.7,2.8,11.4,4.2,17.1c0.3,1.4,2.6,1.9,3.3,0.4c4.7-10.8,8.2-22,10.3-33.6
			c11,0.7,22.1,1.4,33.1,2c1.6,0.1,2.5-2.2,1.3-3.2c-7.4-6.7-14.8-13.4-22.2-20.1c2.5-4.7,4.1-10.2,5.8-15.1
			c2.2-6,4.2-12.1,6.2-18.2c0.5-1.6-1.4-2.9-2.7-2.1c-8.7,5.3-18.2,10-26.3,16.2c-4.2-3.4-9.6-5.6-14.4-7.8
			c-5.1-2.4-10.4-4.5-15.7-6.4c-1.5-0.5-2.7,1.1-2.4,2.4c2.3,9.7,5.5,19.2,9.8,28.2c0.1,0.2,0.3,0.4,0.4,0.5c0,0-0.1,0-0.1,0.1
			c-7.8,6.7-15.4,13.7-23,20.6c-1.3,1.2-0.1,3,1.3,3.1c9.4,1.2,18.7,1.7,28.2,1.7C254.6,121.6,256.4,126.5,257.4,131z M250,93.4
			c0.7-0.7,0.4-1.7-0.2-2.1c0.5-0.3,0.9-0.9,0.6-1.6c-3-8.1-5.7-16.2-7.9-24.5c4.4,1.7,8.8,3.5,13.1,5.5c4.5,2.1,8.8,5,13.5,6.7
			c0.5,0.2,0.9,0.1,1.2-0.2c0.7,0.3,1.4,0.4,1.9-0.2c7.6-3.5,14.8-8.4,22-13c-1.4,4.2-2.8,8.4-4.3,12.6c-2,5.6-5,11.4-6.2,17.2
			c-0.1,0.4,0,0.7,0.1,1c0,0.5,0.1,1,0.6,1.4c6.2,5.5,12.3,11,18.5,16.6c-9.8-0.6-19.5-1.1-29.3-1.7c-0.7,0-1.6,0.6-1.8,1.3
			c-1.7,10.1-4.4,19.9-8.2,29.4c-1-4-2-7.9-3-11.9c-1.2-4.6-1.9-10-4.2-14.2c0.4-1.1-0.1-2.6-1.6-2.6c-8.2,0-16.3-0.4-24.5-1.3
			C237.2,105.9,243.7,99.8,250,93.4z"/>
	</g>
	<g>
		<path class="st0" d="M207,121.7c12.4,1.6,25.1,2.8,37.6,2.4c0,0,0.1,0.1,0.1,0.1c3.4,1.8,4.7,9,6.1,12.4c1.2,2.9,2.4,5.7,3.6,8.5
			c2.9,6.9,5.9,13.8,8.9,20.8c0.5,1.2,2.4,1.1,3,0c6.5-12.9,11.6-26.4,15.3-40.4c7,0.8,14.8-0.7,21.6-1c8.5-0.4,17-0.7,25.5-1
			c1.6,0,2.5-2.1,1.3-3.2c-9.8-9.4-19.3-19.2-29.4-28.2c-0.3-0.2-0.6-0.4-0.9-0.4c2.2-8.1,4.2-16.3,6.3-24.5
			c1.6-6.2,5.4-14.2,3.7-20.6c-0.3-1.2-1.6-1.5-2.6-1.1c-13,6.4-26.1,12.7-38.6,19.9c-0.1-0.4-0.4-0.7-0.8-0.9
			c-12.9-6.1-26-11.8-39-17.7c-1.4-0.6-3,0.4-2.6,2c1.8,7.2,3.6,14.4,5.4,21.6c1.4,5.3,2.2,11.6,4.4,16.9
			c-3.6,6.5-11.2,10.3-16.5,15.3c-5.3,5-9.9,10.5-13.9,16.5C204.7,120.3,205.8,121.6,207,121.7z M224.9,102.3c4.6-4,9.5-7,12.3-12.3
			h0c0.5,0.8,1.6,0.4,1.7-0.5c0.3-6.5-2.6-13.9-4.1-20.2c-1.5-6-3-12-4.5-18.1c11.8,5.4,23.7,10.9,35.6,16.1
			c0.2,0.1,0.3,0.1,0.5,0.1c0.2,0.5,0.6,1,1.3,0.7c13.2-5.5,26-12.1,38.9-18.6c0,3.4-1.6,7.1-2.3,10.1c-0.9,3.3-1.7,6.7-2.6,10
			c-1.8,7-3.7,14-5.3,21c-0.3,1.1,0.4,1.9,1.3,2.1c-0.1,0.5,0,1.1,0.5,1.6c8.3,8.7,17.3,17,26,25.3c-7,0.2-14,0.5-20.9,0.9
			c-7.5,0.4-16.7-0.1-23.8,2.5c-0.1,0-0.1,0.1-0.1,0.1c-0.4,0.2-0.8,0.5-1,1.1c-3.3,12.6-7.8,24.7-13.4,36.4
			c-3.1-7.3-6.3-14.7-9.5-22c-1.8-4.1-3.6-8.5-5.8-12.4c-0.7-1.2-1.3-2.2-2.2-2.9c0.9-0.9,0.6-2.8-1.1-2.9c-12.1-0.4-24-0.8-36-2.3
			C214.5,112.6,219.4,107.1,224.9,102.3z"/>
	</g>
	<g>
		<path class="st0" d="M346.2,527.7c8.9-6.6,11.4-19.8,5.4-28.4c15.8-0.4,30-13.4,26.2-30.9c-4.7-21.8-29.9-19.6-47.5-21.4
			c4.3-8,7.4-17.1,1.6-25.3c-5.4-7.6-15.2-10.9-24.2-11.2c-17.6-0.6-34.4,10.2-41.6,26c-6-14.7-26.3-22.3-39.8-12.4
			c-12.2,8.9-13.1,27-4.6,38.5c-10.1,0.3-20.1,6.1-22.5,16.5c-2.3,9.8,4.3,20.3,13.5,23.1c-7.5,8.2-5.3,22.8,4.8,28.9
			c13.5,8.3,28.2,1.4,37.2-9.7c2.2,12.4,11.5,24,24.8,24.6c12.6,0.6,24-10.4,24.2-22.6C316.2,532.4,332.6,537.8,346.2,527.7z
			 M302,515.8c-1.8-1.5-5.1-0.1-4.2,2.5c4.2,12.3-8.5,25.3-21,22.4c-11.8-2.7-18.3-15.2-17.7-26.5c0.1-2.5-3.4-3.3-4.6-1.2
			c-6.1,10.8-17.6,20.2-30.6,15.8c-11.6-3.9-15.8-20.6-3.2-26.3c2.2-1,1.2-4.9-1.3-4.6c-10.1,1-18.4-9.9-14.7-19.5
			c3.5-9,14.4-12.4,23.1-10.1c2.9,0.8,4.2-3,2-4.7c-11.4-8.2-11.7-28.1,0.3-36.1c12.5-8.2,30.7,0.9,33.9,14.8
			c0.3,1.3,1.4,1.6,2.4,1.2c1.1,0.2,2.4-0.3,2.9-1.6c5-14.1,18-24.2,32.8-26c7.5-0.9,15.5,0.3,21.7,4.8c10,7.3,5.5,18.2,0.2,27
			c-0.8,1.3-0.1,3.5,1.5,3.8c13.6,2.1,33.8-1.5,43.6,10.4c5.8,7.1,5.2,17.8-0.6,24.7c-6.1,7.2-16.2,8.9-24.9,6.3
			c-2.8-0.8-4.8,3.6-2,4.8c13.5,6,8.5,23.6-3.1,28.3C325.3,531.5,312,524.3,302,515.8z"/>
	</g>
	<g>
		<path class="st0" d="M253.8,542.4c0.2-0.4,0.2-0.9,0.1-1.3c0,0,0,0,0,0c1.4-1,0.2-3.1-1.3-2.3c-7.3,3.9-15.1,8.5-17.3,17.1
			c-1.8,6.9,1.1,14.4,8.4,16.2c5.8,1.4,11.4-1.7,12.4-7.8C257.3,556.9,250.3,549.6,253.8,542.4z M251.9,562.9c-0.4,4-3.7,6-7.5,4.8
			c-4.5-1.4-5.9-6.4-4.9-10.7c1.2-5.1,4.9-8.9,9-12.1C247.7,550.8,252.4,557,251.9,562.9z"/>
	</g>
	<g>
		<path class="st0" d="M326.9,558.5c-2-7.4-8.6-11.7-15.4-14.2c-0.7-0.3-1.2,0.3-1.3,0.9c-1.3,0.5-1.9,2.7-0.4,3.8
			c4.1,3.2-2.4,10-3.6,13.1c-1,2.6-1.1,5.3,0.2,7.8c2.6,5.1,9.8,7.1,14.7,4.4C326.5,571.3,328.4,564.2,326.9,558.5z M311.4,568.9
			c-4-4.4,3-10.2,3.9-15c0.3-1.7,0.2-3.3-0.3-4.7c3.6,2.7,6.8,6.1,7.7,10.5C324,565.8,317.7,575.8,311.4,568.9z"/>
	</g>
	<g>
		<path class="st0" d="M283.6,568.8c-1.1-0.3-2.3,0.4-2.7,1.5c-5.3,3.5-10.2,8.7-10.9,15.1c-0.7,5.9,3.2,12.7,9.2,14.1
			c6.1,1.5,11-3.2,12.3-8.8c1.8-7.5-2.8-14.3-6.4-20.5C285.2,569.5,284.5,568.7,283.6,568.8z M279.4,594.9c-5.5-2-6.3-8.8-4.2-13.4
			c1.5-3.4,4-5.8,6.7-8.1c1.9,3.2,4.1,6.5,5,10.1C288.3,588.3,286.6,597.6,279.4,594.9z"/>
	</g>
	<g>
		<path class="st0" d="M537.5,60c0,0.3,0.1,0.6,0.2,0.8c-0.8,1.5-1.2,3.3-1.1,5.3c0.4,6.2,5.8,10.1,11.5,10.2
			c-2,8.1,1.5,17.4,9.8,20.8c9,3.6,20.2-1.8,22.8-11.1c0-0.1,0-0.2,0.1-0.3c0,0,0.1,0,0.1,0.1c3.9,1.9,5.7,6.2,9.7,8.1
			c2.8,1.3,6.1,1.5,9,0.6c5.4-1.6,8.3-6.2,8.7-11.3c7.3,3,18.3,3,22-4.8c3.6-7.6-4.1-16.9-10.5-21.9c4.7-4,6.4-11.4,2.5-16.7
			c-3.9-5.2-11.2-5.6-16.3-2.4c-1.4-7.4-7.8-13.3-15.4-14.2c0-0.2,0.1-0.3,0.1-0.5c0.7-8-0.1-15.6-2.1-22.7H583
			c2.3,7.3,3.2,14.9,2.7,22.7c0,0.2,0,0.4,0,0.6c-4.9,0.9-9.4,3.8-12.5,7.7c-1,1.2-2,2.6-2.8,4.2c-0.6-11.9-2.6-24-6.8-35.2h-5.2
			c4.4,11.4,6.2,23.8,7.4,36c-4.1-2.1-8.8-2.6-13.1-0.8c1.1-12.7-2.1-25-8.4-35.2H539c7,10.5,10.4,23.7,8.9,36.8
			c-0.1,0.7,0.1,1.2,0.4,1.6c-4.1,4.4-4.9,11.3-2,16.5c-1.6,0.3-3.1,0.9-4.5,1.7C540,36.8,536,13.1,520.8,0H513
			C532.7,11.8,535.6,39.2,537.5,60z M549.7,58.4c1.7,0.3,3.4-1.8,1.9-3.2c-4.9-4.4-4-12.8,1.7-16.2c5.3-3.2,11.7-1.1,16.2,2.6
			c0.2,0.5,0.4,1,0.8,1.4c0.2,0.3,0.7,0.3,1,0.3c0,0,0,0,0,0c0.1,0.1,0.2,0.2,0.3,0.3c0.7,0.8,2.1-0.2,1.5-1.2
			c-0.1-0.2-0.3-0.4-0.4-0.6c-0.1-0.2-0.2-0.3-0.3-0.4c-0.1-0.2-0.3-0.4-0.4-0.6c0.3-1.1,1.5-4.6,1.9-5.2c1.1-2,2.7-3.5,4.4-4.9
			c3-2.4,6.6-4,10.5-4c7.7,0.1,14,6.9,13.6,14.5c-0.1,1.6,2.2,2.7,3.3,1.4c3.4-4.2,11-5.2,14,0.2c2.5,4.4-0.2,9.8-4.4,11.8
			c-1.4,0.7-1.2,2.7,0,3.4c4.5,2.8,11,8.6,11.4,14.4c0.8,11.2-13.8,9.1-19.4,5.4c-1.6-1.1-3.2,0.7-3,2.3c1.3,8.3-7.6,13.7-14.1,8.4
			c-2.7-2.2-4-4.9-7.2-6.3c-1.5-0.7-2.9,0.5-3,1.8c-0.8-0.5-1.9-0.4-2.4,0.6c-2.9,6.5-9.4,11.4-16.8,9.4
			c-7.9-2.2-11.3-11.9-8.1-18.9c0.7-1.5-0.4-3.3-2.2-2.8C538.6,75.2,537.6,56.5,549.7,58.4z"/>
	</g>
	<g>
		<path class="st0" d="M410.4,40c0.1,0.3,0.2,0.6,0.4,0.8c-5.1,4.4-5.3,11.8-1.5,16.2c-8.8,2-17.9,8-18.2,17.1
			c-0.4,11.7,11.8,13.4,21.1,12.6c-4.2,9.2-1.8,20.8,9.1,24.6c8.5,2.9,18.3-2.8,19.8-11c3.9,6.7,12.5,10.5,20,7.1
			c6.4-2.9,9.7-9.7,9-16.3c7.6,3,17.3,0.4,21.2-7.4c4.5-9.1-2.2-19.3-11.1-21.9c7.5-7.4,7.5-20.2-1.6-27.1c-4-3.1-8.5-4.2-12.7-3.8
			c2.6-9.2,4.8-18.9,11-26.5c1.4-1.7,2.9-3.1,4.5-4.2h-6.5c-7.6,8.3-10.7,20.2-12,31.2c-4.9,1.2-9.3,4.3-12.3,8.7
			c-0.5-4.6,3.2-20.4,3.7-22.2c1.6-6.2,3.8-12.2,7.1-17.7h-4.9c-0.9,1.7-1.8,3.4-2.6,5.3c-3.7,8.8-5.6,18.3-6.6,27.7
			c-0.1,0.5-0.2,2.1-0.1,3.9c-2.2-1.7-5.1-2.6-8.2-2.1c-1.8,0.3-3.4,1.1-4.8,2.2c1-12.4,2.1-25.3,6.2-37h-4.8
			c-3.9,12.1-4.6,25.3-3.9,38c0,0.5,0.3,0.8,0.6,1c-0.9,1.2-1.6,2.7-1.9,4.2c-2.6-5.2-11.1-6.7-16.8-4.2
			c-0.9-13.7,0.9-26.9,5.9-38.9h-5.1C409.4,12.6,407.7,26.6,410.4,40z M418.7,41.5c5.1-0.8,9.6,2.3,10.5,7.5c0.1,0.8,1.4,0.8,1.6,0
			c0-0.1,0-0.1,0-0.2c0.6,1.3,2.7,1.2,2.7-0.4c0.1-2.9,0.7-5.5,2.9-7.5c4.4-3.9,10.7-1.1,11.5,4.8c0.3,2.3,3.3,2.9,4.1,0.6
			c3.3-9.5,14.1-14.8,23.1-9.1c9.5,6,8,19.4-1.7,24.2c-1.8,0.9-1,4.1,1.1,3.9c8.8-0.9,17.7,8.9,12.5,17.4
			c-3.8,6.3-13.5,7.1-18.7,2.4c-1.8-1.6-4.3,0.4-3.3,2.5c3.2,6.5-0.3,14.7-7.3,16.6c-7,1.9-13.6-2.7-16.5-8.9
			c-0.1-0.2-0.2-0.3-0.3-0.3c-0.1-0.6-0.3-1.1-0.5-1.7c-0.9-2.2-3.9-1.4-3.5,1c1.4,9-6.7,17-15.6,12.4c-8.1-4.1-8.7-14.4-3.5-21.1
			c1.3-1.7,0.1-4-2.1-3.6c-3.8,0.7-7.7,1.4-11.5,0.6c-7.1-1.3-10.9-8.3-5.7-14.5c4.6-5.5,11.6-8,18.6-7.6c2.8,0.1,2.8-4.2,0-4.3
			C407.1,55.7,410.9,42.6,418.7,41.5z"/>
	</g>
	<g>
		<path class="st0" d="M499.2,758c-18.5,1.6-40.2,6.8-52.6,21.7c-5.1,6.1-8.6,13-11,20.3h4.8c2-5.6,4.7-10.9,8.4-15.8
			c11.4-14.8,32.4-20.1,50.3-21.6c18.6-1.6,36.1,3.7,48.3,18.4c4.8,5.8,8.3,12.2,10.9,19h5.2c-3-8.1-7.1-15.7-12.8-22.4
			C537.9,762.3,518.9,756.4,499.2,758z"/>
	</g>
	<g>
		<path class="st0" d="M521.5,746.1c-34.7-5.2-73.5,6.4-95.8,34.4c-4.7,5.9-8.5,12.5-11.3,19.5h5.1c3.6-8.7,8.9-16.7,16.1-23.7
			c14.4-14,33.6-22.7,53.4-25.7c22.5-3.4,47,0.5,66.3,13.1c13.2,8.6,23.1,21.6,27.7,36.4h5.6C580.4,771,551.7,750.6,521.5,746.1z"/>
	</g>
	<g>
		<path class="st0" d="M475,799.9c0,0-0.1,0.1-0.1,0.1h6.5c7.7-5.6,18.1-6.1,27.2-2.3c1.6,0.7,3,1.4,4.4,2.3h7.8
			c-4-3.4-8.7-6.1-14.4-7.8C495.4,788.9,483,791.2,475,799.9z"/>
	</g>
	<g>
		<path class="st0" d="M490.8,775c-15.1,2.7-27.2,11.9-34.4,25h4.9c0.5-0.9,1-1.7,1.6-2.5c8.4-12.3,22.5-18.9,37.2-18.9
			c16.7,0,30.3,8.8,38.7,21.4h5.4C533.6,782.3,513.6,771,490.8,775z"/>
	</g>
	<g>
		<path class="st0" d="M273.9,330.7c-7.8-12.9-24.8-31.2-39.4-20.5c-13.6,10-2.2,29.4,11.8,31.1c-8.8,2-17.6,6.9-16.6,17.3
			c0.4,4,2.6,7.7,6.5,9.1c4,1.4,8.7,0,13-1.6c-8.1,8.6-6.8,24.4,7,27.2c16.3,3.3,28.2-15.9,29-30c14.5,13.3,36.5,13.2,54.3,6.3
			c13.4-5.2,27.5-15.1,32.7-28.9c0,0,0,0.1,0,0.1c2.7,12.7,19.6,27.2,32.8,19.7c9.2-5.3,9.2-16.7,2.8-23c10-1.4,20.8-8.8,18.2-18.8
			c-2.8-11.2-15.4-15.8-25.7-13.1c4.6-4.5,8.2-10.5,8.3-16.8c0-6.1-3.8-12.9-9.9-14.6c-8.3-2.4-14.8,5.5-19.2,11.2
			c-5.5,7.1-9.7,15.2-12.3,23.7c-7.6-9.5-20.3-15.1-33-15.1C309.3,287.5,279,307.1,273.9,330.7z M282.1,362.1
			c-5.2,9.8-5.4,22.5-17.9,26.6c-6.8,2.2-13.9-0.7-15.9-7.8c-1.8-6.6,1.9-12.9,6.9-16.9c0.6-0.5,0.2-1.3-0.4-1.5
			c-0.1-0.3-0.4-0.6-0.9-0.7c-6.3-1.2-18.9,7.3-20-3.7c-0.9-9.5,10.4-13,17.4-15.7c0.9-0.4,0.9-2-0.2-1.9c0.4-0.8,0.2-1.8-0.9-2.2
			c-6.4-2.1-13.1-3.6-16.1-10.5c-3.3-7.6,1.4-16.3,10.1-16c12.2,0.5,22.8,13.5,29,23.2c0,0.5-0.1,0.9-0.1,1.4
			c-5.6,0.1-10.6-1.8-14.2-6.3c-0.7-0.9-2.2,0.3-1.6,1.2c3.4,5.3,9.5,8.8,15.9,8.4c0.1,0.8,0.1,1.6,0.2,2.4c-2.4,0-4.9,1.3-7,2.2
			c-2.9,1.3-5.6,2.8-8.2,4.7c-0.9,0.7-0.1,2.2,0.9,1.6c2.7-1.5,5.4-2.8,8.3-3.9c2.1-0.8,4.5-1,6.5-2c0.8,3.3,2.1,6.6,4,9.8
			c-7.2,1.8-11.9,10-11.2,17.1c0.1,1.2,1.8,1.2,1.9,0c0.5-7,5.1-11.5,11.2-14.2c0.7,1,1.5,1.9,2.3,2.9c0.3,0.4,0.7,0.7,1,1.1
			C282.7,361.4,282.3,361.6,282.1,362.1z M294.1,363.5c-13.4-8.3-21.2-24-12.5-40.1c1-1.9,2.2-3.7,3.4-5.4
			c4.2,6.6,8.1,12.7,9.8,20.6C296.6,346.8,296.2,355.4,294.1,363.5z M296.1,364.6c5.8-15.6,3.4-37.2-9.1-49.2
			c3.4-4.1,7.4-7.7,11.9-10.6c8.9,8.1,11.9,19,13.4,30.6c1.4,10.9,3.3,24-3.7,33.4C304.1,368.2,299.9,366.7,296.1,364.6z
			 M312.9,369.4c-0.5,0-1-0.1-1.6-0.1c7.9-9.3,5.9-23.3,4.4-34.7c-1.5-11.5-4.4-24-13.7-31.6c6.7-3.8,14.3-6.1,22-6.8
			c0,0.1,0.1,0.2,0.1,0.3c12.6,22.6,12.4,49.6,0.3,72.3C320.6,369.4,316.7,369.6,312.9,369.4z M369.3,311.6
			c4.5-10.9,10.8-23,20.3-30.4c6.8-5.3,14.5-0.9,14.5,7.6c0,7.3-6,12.3-10.1,17.5c-1,1.3,0.1,3.6,1.6,3.2c0.2,0.1,0.5,0.2,0.8,0.1
			c8.1-3.3,18.5-1.4,23.6,6.2c4.7,7-0.1,12.6-6.5,15.4c-5,2.2-9.7,1.5-14.9,2.2c-1.5,0.2-2.7,2.4-0.9,3.2c1.6,0.7,3.5,1.1,5.5,1.2
			c9.7,6.6,3.8,23.1-9.6,19.6c-9.9-2.6-11.9-12-18.6-18.1c-0.7-0.7-1.6-0.5-2.2,0c0.7-2.2,1.2-4.5,1.4-6.8c2.3,2.1,4.6,4.1,6.9,6.2
			c2.2,1.9,4.4,4.2,6.9,5.6c1.2,0.6,2.1-0.8,1.4-1.8c-1.9-2.5-4.9-4.3-7.4-6.2c-2.3-1.8-4.7-3.6-7-5.4c-0.2-0.2-0.4-0.2-0.6-0.1
			c0-0.8,0-1.6,0-2.3c0.1,0,0.1,0,0.2-0.1c5.2-2.4,9.7-1.7,15.1-1.5c1.2,0,1.6-1.7,0.6-2.2c-4.9-2.6-11.3-1.2-16.1,1.3
			c-0.4-3.6-1.3-6.9-2.7-10c5.7-2.2,12.2-7.1,13.1-13.3c0.1-1-1.1-2.2-2-1.2c-1.9,2.3-3.2,5-5.4,7.2c-2,2-4.4,3.7-6.9,4.9
			c-0.3-0.6-0.7-1.2-1-1.7C369.2,311.7,369.2,311.7,369.3,311.6z M361.3,309.6c8,8.7,10.4,21.3,5.2,32c-3.8,7.8-10.4,14.1-18.2,18.7
			c10.4-17,7.7-42.2-0.6-59.6C352.8,302.6,357.5,305.4,361.3,309.6z M343.1,300.6c4.9,9.7,7.6,20.1,7.6,31c0,10.7-3.4,19.7-6.3,29.8
			c-0.1,0.4-0.1,0.7,0.1,1c-5.2,2.6-10.8,4.6-16.4,5.7c12.3-21.2,12.7-48.1,1.6-69.9c4.4-0.2,8.9,0.1,13.2,1.1
			C342.8,299.8,342.8,300.2,343.1,300.6z"/>
	</g>
	<g>
		<path class="st0" d="M690.4,378.6c-19,4.4-35.8,20.9-36.1,41.1c-0.2,11.4,3.9,21.7,10.5,29.9c-8.8,0.1-21.5,3-19.9,12.6
			c1.3,8,9.5,9.5,16.4,8c-1,1.7-1.4,3.7-1.2,5.7c-12.6,13.5-23.3,29.2-33.6,44.5c-5.1,7.6-9.9,15.3-14.7,23.2
			c-2.6,4.3-5.1,8.6-7.5,12.9c-1.1,2-2.4,3.5-1.7,5.9c0.1,0.5,0.4,0.9,0.7,1.1c0,0.4,0,0.9,0.1,1.3c0.4,1.4,1.3,2.7,2.5,3.6
			c1.4,1,3.4,1.6,5.3,1.4c-0.2,1.3,1.9,2.1,2.8,1c5.9-7.1,10.6-15.5,15.7-23.1c5.2-7.7,10.5-15.4,15.9-23
			c10-14.3,20.6-28.3,30.3-42.8c0.6,6.2,4,11.9,11.4,10.1c10.5-2.7,9.7-15.2,7.1-23.4c14.7,3.6,30.7,0.5,42.5-12.1
			c12.3-13.1,20.7-45.9,2.7-57.9c-0.1-0.1-0.2-0.1-0.4-0.2C730.5,381.7,707.8,374.6,690.4,378.6z M642,523.5
			c-5.4,7.6-10.7,15.3-15.9,23c-4.3,6.3-9,12.6-12.9,19.2c-0.1,0-0.2,0-0.3,0c-1.7,0.3-3.2,0.7-4.8-0.1c-0.7-0.4-1.5-0.9-1.8-1.7
			c-0.1-0.2-0.1-0.3-0.1-0.5c0.1-0.1,0.2-0.2,0.3-0.3c0.4-0.3,0.7-1,0.6-1.5c0-0.2-0.1-0.3-0.1-0.5c0.1-0.2,0.2-0.3,0.2-0.5
			c0.3-0.7-0.2-1.3-0.8-1.5c1.3-1.6,2.6-3.4,2.7-3.7c1-1.8,2.1-3.6,3.1-5.4c2.1-3.6,4.3-7.1,6.4-10.7c4.6-7.4,9.3-14.7,14.2-21.9
			c8.9-13.1,18.7-25.5,27.8-38.4c0.5,1,1.2,2,2.1,2.8c2.4,2,5.6,2.4,8.5,1.6C661,496.3,651.5,510,642,523.5z M689,486.4
			c-3.3,2.9-7.6,1.9-9.3-2.1c-0.8-2-1.1-4.2-1.1-6.4c0.6-1.2,1-2.5,0.8-3.9c-0.2-1.9-2.7-1.8-3.4-0.3c-1.1,2.3-1.7,4.2-4.2,5.4
			c-2,1-4.6,1.2-6.5-0.2c-3.2-2.4-2.5-7.8,0.4-10.2c0.6-0.3,1.2-0.6,1.7-0.9c1.6-0.9,1.1-3.8-1-3.3c-5,1.1-16.3,5.8-17.7-2.9
			c-1.1-6.6,11.2-8.9,18.1-9.6c1.2,1.3,2.5,2.6,3.9,3.8c-2.1,1-4.2,1.8-6.5,2.3c-2.6,0.6-5.3,0.5-7.8,1.2c-1.1,0.3-1,1.7,0.1,1.9
			c5,1.1,11.4-1.5,15.8-3.9c1.8,1.5,3.8,2.9,5.8,4.2c-1.5,0.3-2.7,1.7-3.7,2.8c-1.4,1.5-3.2,3.5-3.3,5.6c0,0.7,0.8,1.3,1.4,0.8
			c1.4-1.1,2.1-3,3.2-4.4c1.1-1.3,2.8-2.4,3.4-4c1.6,0.9,3.2,1.8,4.8,2.6c-2.6,4.1-2.7,9.9,0.4,13.7c0.7,0.8,2.2,0,1.7-1
			c-1.9-3.9-2.3-8-0.4-11.9c1.6,0.7,3.2,1.3,4.8,1.8c-0.2,0.3-0.3,0.7-0.2,1.2C691.6,474.3,694.2,481.8,689,486.4z M726,458.9
			c-19.4,12.2-43.9,5.1-57.3-12.5c-1.4-1.8-2.7-3.8-3.8-5.8c16.1,16.2,40.7,22.2,62.8,17.1C727.2,458.2,726.6,458.6,726,458.9z
			 M733,453.2c-0.5-0.3-1.1-0.4-1.7-0.3c-24.9,7.4-51.3-0.9-69.4-18.9c-2.1-5.6-3.1-11.5-2.4-17.4c16.2,25.3,48.8,38.7,77.9,30.8
			C736.1,449.5,734.6,451.4,733,453.2z M743.1,432.8c-0.7,3.3-1.7,6.6-3.1,9.6c-14.2,4.4-29.3,4.1-43.3-1.1
			c-15.1-5.7-26.4-16.4-36.5-28.5c1.2-5.1,3.6-9.8,6.8-13.9c0,0.1,0,0.1,0.1,0.2c14.5,26.4,48.8,38.6,77,28.3
			C743.8,429.3,743.5,431.1,743.1,432.8z M743.2,411.2c1.2,3.7,1.5,7.9,1.3,12.1c-0.4-0.1-0.9-0.2-1.4,0c-27.3,9.2-57.8-1.7-74-25.4
			c-0.2-0.3-0.5-0.4-0.9-0.4c2.8-3.3,6.1-6.1,9.8-8.4c0,0.1,0.1,0.3,0.1,0.4C690.1,412.4,719.6,423.9,743.2,411.2z M735.4,399.2
			c0.2,0.2,0.4,0.4,0.6,0.5c-0.4,0.9-0.2,1.9,0.8,2.6c2.1,1.4,3.6,3.2,4.8,5.3c-22.8,9.1-47.6,2.7-60.6-19.4
			c-0.1-0.2-0.3-0.4-0.5-0.6c3.9-2.1,8.1-3.6,12.4-4.5c-0.1,0.2-0.2,0.3-0.2,0.5c1,6.9,10.1,12.4,15.9,15c7.9,3.5,16.8,4.4,25.2,2.4
			C734.8,400.9,735.3,400,735.4,399.2z M733,397c-7.9,1.7-15.6,1.1-23.1-2.2c-3.5-1.5-6.7-3.5-9.6-6c-2.3-2-4.1-4.4-6.7-5.9
			c5.4-0.9,10.9-0.8,16.3,0.4c9.6,2.2,16.5,7.2,23.2,13.6C733.1,397,733.1,397,733,397z"/>
	</g>
	<g>
		<path class="st0" d="M653.1,668.7c3.2,8.2,6,16.8,9.9,24.7c1.3,2.6,3.2,4.8,5.5,5.6c0.1,0.3,0.3,0.5,0.7,0.6
			c8.6,0.4,11.5-8.3,9.7-15.4c-1.6-6.3-4.8-12.3-7.2-18.2c-1.6-3.9-12.3-23-2.9-24.3c0.4-0.1,0.7-0.2,0.9-0.3
			c12.4,9.6,13.2,27.6,23.7,38.9c3.2,3.4,8.2,6.6,12.9,4.1c3.7-2,5.2-6.4,2.8-9.5c0.3-12.1-3.5-23.7-9.5-34.3
			c-8.1-14.3-15.7-28.5-21.3-44c0.4-0.2,0.8-0.6,1.1-1.2c5-10.4,4.5-22.9-1.3-33c-5-8.7-15.1-16-25.3-12.7c-2.3-1.3-4.9,2.4-2.7,4.5
			c6,5.7,13.4,19.8,7.3,27.8c-2.8,3.8-9.7,4.2-13.9,5.2c-4.7,1.2-9.5,2.5-14.1,3.9c-9.3,2.9-18.5,6.4-27.4,10.5
			c-4.4,2-8.8,4.2-13.1,6.5c-1.6,0.9-3.3,1.8-4.9,2.7c-4,2.3-5.3,1.2-7.8-2.1c-2.5-3.3-4.1-7.8-6.2-11.4c-2.5-4.3-5-8.4-7.7-12.5
			c-5.3-8-10.8-16.8-17.5-23.7c-2.5-2.6-6.7-5.8-10.1-2.6c-1.6,1.5-1.7,3.6-1.5,5.7c0.3,4.4,1.3,8.9,2.2,13.2
			c-10.7,4.5-21.5,8.7-32,13.8c0,0,0,0,0,0c-2.4-7.9-8.6-13-16.7-14.4c-1.4-0.2-3,1.1-2.7,2.6c3.1,17.4,9.7,33.7,17.1,49.7
			c7.9,16.9,16.1,33.7,24.5,50.4c8.4,16.8,16.8,33.6,25.8,50.1c3.3,6,13.5,17,19.2,6.8c0.3-0.6,0.1-1.2-0.3-1.5
			c0.3-1,0.3-2.1,0.1-3.2c-1-5.3-4.7-10.9-6.8-15.8c-2.6-5.9-5.3-11.8-7.4-17.8c-1.6-4.4-2.6-11,3.9-11.9c3.5-0.5,6.3,1.2,8.6,3.6
			c7.7,8.1,9.5,21.8,14.5,31.6c3,5.9,9.7,11.4,16.1,6.6c0.4-0.3,0.6-0.6,0.6-1c4.7-5.8-3.4-20-5.6-24.7c-3.9-8.3-12.9-20.2-5.5-28.5
			c5.9-6.7,15.8-9.5,23.9-12.7c4.3-1.7,8.6-3.5,12.9-5.2c3.8-1.5,8.1-3.9,12.3-4.4C647.2,650.2,650.4,661.9,653.1,668.7z M613.4,656
			c-10.6,4.3-29.5,9.3-32.1,22.8c-1.3,6.5,3.8,13.6,6.5,19.1c2,4.2,12.9,21.9,8.8,27.4c-15.6,4.9-15.3-48.8-38.5-43
			c-7.4,1.8-8.6,8.7-6.4,15.1c2.2,6.3,5.1,12.4,7.8,18.5c1.3,2.9,2.6,5.9,4,8.8c0.3,0.6,5.3,10.5,3.5,10.6c-0.3,0-0.5,0.3-0.5,0.6
			c-7,3.4-11.7-8.5-14.3-13.5c-3.5-6.9-6.9-13.7-10.4-20.6c-6.7-13.3-13.3-26.7-19.8-40.2c-3.5-7.1-7-14.2-10.5-21.3
			c0.1,0.1,0.1,0.1,0.2,0.2c6.5,6.7,18.8,2.6,25.8-1.2c6.8-3.7,12.3-11.6,8.2-19.4c-3.8-7.2-12.2-5.5-18.4-2.8
			c-0.3-0.1-0.6-0.1-1-0.1c-3.9,0.8-7.5,2.5-10.7,4.8c-0.7,0.5-1.2,1.6-1,2.5c-3,3.2-5.8,7.1-5.4,11.1
			c-8.2-17.1-15.8-34.7-19.7-53.2c4.8,1.7,8.6,5.2,10.8,10.1c0.4,0.8,1.1,1.1,1.8,1c0.1,0.1,0.3,0.1,0.6,0.1
			c12.4-3,24.4-7.7,36.2-12.6c0.9-0.4,1.6-1.4,1.4-2.4c-0.4-2.7-0.9-5.5-1.3-8.2c-0.4-2.3-2.9-7.9,2.2-6.3c1.4,0.4,3.7,4.7,4.5,5.8
			c1.5,1.9,3,3.9,4.4,5.9c6.6,9.1,12.7,18.6,18.1,28.4c2.5,4.5,5,14.3,11.6,14.1c3.6-0.1,7.2-3.1,10.1-4.6c4.7-2.5,9.4-4.8,14.2-7
			c9.7-4.4,19.6-8.1,29.7-11.2c5.2-1.6,10.5-2.9,15.9-4.2c3.6-0.8,7.4-1.6,10.3-4.1c10.3-8.5,3.3-25.9-4.3-34.8
			c9.1-0.5,16.8,8.1,19.9,16.1c3.2,8.2,2.8,16.9-0.8,24.9c-0.2,0.4-0.2,0.7-0.2,1.1c-0.9,0.5-1.5,1.6-1,2.8
			c4.9,13.8,11.1,27,18.5,39.5c3.7,6.3,7.4,12.4,9.7,19.4c2.2,6.5,3.2,13.3,3.7,20.1c-3.8,4.1-6.8,4.4-9.2,0.8
			c-0.8-0.9-1.5-1.9-2.2-2.9c-1.7-2.4-3-5-4.3-7.7c-1.9-4-3.6-8.1-5.5-12.1c-3.3-6.6-7.3-12.5-13.8-16c-0.4-0.6-1-1-1.9-0.9
			c-23.5,1.8,13.7,46.3,5.9,57.7c-0.5-0.4-1.2-0.6-2-0.3c-5.9,2.6-13.3-22.9-14.8-26.7c-2.3-5.8-4.3-12.3-8.7-17
			C639.2,641.2,623.5,651.8,613.4,656z M515.5,626.4c2.3,3.2,5.9,5.1,10,4.9c0.9-0.1,1.4-0.6,1.5-1.3c0.7-0.3,1.2-0.9,1.4-1.7
			c0.3-2.6,0.3-5.2,0.5-7.8c4.5-1.9,10.9-4.1,13.6,1.6c3.1,6.5-3.2,12.5-8.6,15c-4.3,2-10.2,4.2-15,3.4
			C510.2,639,512.4,631.4,515.5,626.4z"/>
	</g>
	<g>
		<path class="st0" d="M508.4,607.1c-1.9-0.5-4.1,0.1-5.3,1.8c-2.1,2.9-0.3,7.3,3.1,8c1,0.2,1.5-1.4,0.5-1.7
			c-1.6-0.6-2.6-2.9-1.5-4.5c0.6-0.8,1.6-1,2.5-0.7c1.2,0.3,1.6,1.1,2.2,2.1c0.8,1.2,2.5,0.3,2.4-1
			C512.4,609,510.2,607.5,508.4,607.1z"/>
	</g>
	<g>
		<path class="st0" d="M525.6,600c-4.2,1.3-4.3,7.5-0.5,9.3c1.2,0.6,2.3-1.2,1.2-2c-1.3-0.9-1.4-3.8,0.5-4.1c0.7-0.1,1.5,0.4,1.9,1
			c0.6,0.8,0.4,1.9,0.9,2.7c0.3,0.4,1,0.7,1.5,0.4c2.2-1,1.3-4,0.1-5.4C529.9,600.3,527.7,599.4,525.6,600z"/>
	</g>
	<g>
		<path class="st0" d="M559.2,224.2c-0.6-0.6-1.5-0.8-2.2-0.2c-1.5,1.3-3.3,2.5-4.5,4c-0.1-0.1-0.3-0.2-0.4-0.3
			c-2-1.5-4.2,1.7-2.2,3.2c2.5,1.9,5.4,4,6.7,7c1,2.3,0.8,5.3-1.2,6.8c-2.8-3-5.5-6-8.4-9c-0.3-0.3-0.6-0.4-0.8-0.4
			c-3.5-2.2-7.5,2.5-8.3,5.8c-1.3,5.3,2.6,9.5,6.5,12.7c-2,1.8-4.2,3.7-5.5,6c-0.6-1.9-2.1-3.2-3.4-4.7c-1.6-1.8-3.2-3.7-4.8-5.5
			c-0.7-0.8-1.8-0.9-2.6-0.2c-3.4,2.6-7,5.7-9.4,9.2c-0.4,0.6-0.2,1.2,0.3,1.6c0,0,0,0.1,0,0.1c6.6,11.2,17.2,21.1,25.7,30.9
			c4.3,5,8.7,10,13.1,15c4.2,4.8,8.5,11.3,14.2,14.4c0.1,0.1,0.2,0.1,0.4,0.1c-1.3,1.1-2.7,2.2-4.1,3.3c-1.9-4-6.3-7.7-9.1-10.9
			c-0.9-1-2.1-1-3.2-0.3c-3.6,2.4-6.8,5.1-9.6,8.3c-1.5,1.6-3.7,3.7-4,5.9c-11.8-13.1-23.6-26.3-35.3-39.5c-1.1-1.3-2.7-1.1-3.7-0.3
			c-0.6-0.2-1.2-0.1-1.8,0.4c0,0-0.1,0.1-0.1,0.1c-0.1-0.1-0.3-0.3-0.5-0.4c-21.6-12.9-45.5-22.7-68.9-31.4c-1.7-0.6-4,1.4-2.9,3.2
			c13.4,22.1,26.6,44.4,40.8,66.1c0.4,0.7,1.2,0.7,1.9,0.5c23.4,19.7,46.7,39.5,70.1,59.2c11.6,9.8,23.3,19.5,34.9,29.3
			c1.8,1.5,19.3,19.3,20.1,9.8c0.1-0.9-0.6-1.7-1.5-1.8c-2.4-0.1-5.2-3.5-6.9-4.9c-2.6-2.2-5.2-4.4-7.8-6.5c-2.4-2-4.8-4-7.2-6.1
			c0.2,0,0.4-0.1,0.6-0.3c0.4-0.3,0.8-0.7,1.2-1c3.2,3.2,7.1,5.7,10.8,8.1c-0.2,0.3-0.4,0.6-0.5,0.9c-0.2,0.3,0.1,0.8,0.5,0.6
			c0.5-0.2,0.9-0.5,1.4-0.8c0.2,0,0.4-0.1,0.5-0.3c2-1.3,3.8-2.8,5.6-4.4c0,0,0,0,0,0c1.3,4.1,6,7.3,10,9.4
			c-2.8,2.3-5.3,4.9-5.8,8.2c0,0.2,0.2,0.5,0.4,0.5c5.3-0.2,9.1-5.4,12.9-8.7c5.7-5,11.5-10,17.2-15c5.3-4.6,10.6-9.3,15.9-13.9
			c1.2,0.9,2.8-0.5,2.2-1.9c5.7-5,11.4-10,17.2-15c23.2-20.3,46.3-40.6,69.5-60.9c1.1-0.9,1.1-2.2,0.6-3.1c-1.2-5.4-4.7-10.3-7.4-15
			c-3.3-5.9-6.7-11.7-10.1-17.6c-7-12-14.2-24-21.5-35.9c-13.5-22-27.4-43.6-41.8-65.1c0.1-1-0.6-2.1-1.6-2.4
			c-0.1-0.1-0.1-0.2-0.2-0.2c-0.5-0.8-1.3-1.1-2-1c-18.3-18.3-39.1-34.4-60.8-48.6c-2-1.3-4,0.8-3.3,2.8
			c8.5,25.5,16.6,51.2,25.8,76.4c-0.2,0.5-0.3,1.1,0,1.7c2.6,5.4,7.2,9.9,11,14.6c4.2,5.2,8.5,10.5,12.7,15.7
			c5.6,6.9,11.1,13.8,16.7,20.6c-2.8,1.1-4.9,3.8-7.1,5.9c-1.1,1.1-2.6,2.2-3.8,3.5c-1.8-3.1-3.8-6-5.7-9c-0.7-1.1-2.5-1.1-3.4-0.3
			c-3,2.5-6,5-9,7.5c-6.4-7.5-12.8-15.1-19.1-22.7c-6.2-7.5-12-16.6-19.3-23c-0.2-0.2-0.5-0.3-0.7-0.3c-1.3-2.8-3.2-5.6-6-5
			c-2.2,0.5-4.3,2.2-6.2,3.3c-2.6,1.5-5.3,3-7.9,4.6c-1.1,0.7-1.5,1.9-0.7,2.9c2.6,3.6,5.7,7,9.2,9.8c-1.4,0.7-2.7,1.8-3.9,2.7
			C564.7,230,562.1,227,559.2,224.2z M571.3,326.2C571.3,326.2,571.3,326.2,571.3,326.2c3.1-1.9,6-4,8.8-6.3c1.1,3,3.4,5.3,6.1,6.9
			c-4.9,3.9-9.8,7.8-14.7,11.8c-2.3-2-4.3-4.4-5.8-6.9C567.7,330,569.6,328.2,571.3,326.2z M650.3,285c1.5,2.1,3.9,3.5,5.7,5.3
			c1.3,1.3,2.4,2.6,3.6,3.9c-5.3,4.2-10.5,8.5-15.3,13c-1.7-0.7-3.4-1.2-5.1-1.6c-2.2-2.9-4.3-5.9-6.9-8.4c3-2.4,6.1-4.7,9.1-7.1
			c0.9,0.2,1.9-0.5,1.8-1.4c2.3-1.8,4.6-3.6,7-5.4C649.9,283.8,649.9,284.5,650.3,285z M667.9,238.4c-0.1-0.2-0.2-0.3-0.2-0.5
			c1.9-1,3.9-1.9,5.8-2.9c0.1,0.1,0.1,0.2,0.2,0.3c3.2,3,5.9,6.2,8.1,9.9c-4.3,3-8.7,6-13.1,8.8c-3-4-5.6-8.2-8-12.6
			c1.6-0.8,3.1-1.6,4.7-2.5c0.1,0.2,0.3,0.4,0.4,0.6C666.7,240.8,668.6,239.6,667.9,238.4z M666.7,255.4c-1.5,0.9-2.9,1.8-4.4,2.7
			l-10-12.3c1.9-0.9,3.8-1.9,5.7-2.8C660.3,247.5,663.3,251.6,666.7,255.4z M675.6,253.8c1.7,2.2,3.4,4.6,4.8,7
			c0.9,1.5,1.4,3.3,2.7,4.3c-3.2,2.3-6.4,4.6-9.6,6.9c-3.2-4-6.3-8-9.5-11.9l-0.2-0.2C667.7,258.1,671.7,256,675.6,253.8z
			 M700.1,298.7c2,3.1,4.7,5.8,7,8.6c-1,0.9-2,1.8-3,2.7c-2.8-3.3-5.5-6.6-8.2-10c0,0,0,0,0,0c1.4-0.8,2.7-1.7,4-2.5
			C699.8,298,699.9,298.3,700.1,298.7z M702,297.1c-0.2-0.2-0.4-0.3-0.6-0.4c1.7-1.1,3.4-2.1,5.1-3.2c1.4-0.9,2.8-1.7,4.2-2.5
			c-0.2,3.3,3,6.4,6,8c-1.3,1.1-2.5,2.3-3.8,3.4c-1.3,1.2-2.7,2.3-4,3.5C706.6,302.9,704.6,299.7,702,297.1z M694.8,298.4
			c-0.1,0.1-0.1,0.1-0.2,0.2c-3.3-4-6.5-8.1-9.8-12.2c3.3-1.4,6.9-2.9,10.4-4.6c1.9,4,4.7,7.5,8,10.5
			C700.4,294.3,697.6,296.3,694.8,298.4z M688.7,281.6c-2.2-3.8-4.4-7.6-6.8-11.2c-0.3-0.4-0.6-0.5-1-0.5c3.8-2.2,7.5-4.4,11.2-6.7
			c2.3,4.1,5,7.9,8.3,11.1c-1.5,1-3,2.1-4.5,3C693.6,278.9,691.2,280.3,688.7,281.6z M679.9,270.5c-0.3,0.4-0.4,1.1-0.1,1.6
			c2.3,3.6,4.8,7,7.2,10.4c-1.2,0.6-2.3,1.3-3.5,1.9c0,0-0.1,0.1-0.1,0.1c-2.9-3.7-5.8-7.3-8.7-11
			C676.4,272.6,678.2,271.5,679.9,270.5z M677,285.1c2.3,2.8,4.5,5.6,6.8,8.3c-0.6,0-1.2,0.1-1.7,0.7c-1.4,1.5-2.8,3-4.2,4.5
			c0.1-0.4,0-0.7-0.3-1.1c-1.8-2.4-3.6-4.8-5.5-7.1c-0.1-0.1-0.2-0.2-0.3-0.3c1.5-1.2,3-2.5,4.6-3.7C676.8,286,677,285.5,677,285.1z
			 M675.3,299.4c0.4,0.4,0.9,0.5,1.4,0.5c-4.2,4.2-8.7,8.2-13.3,12c-2.9-2.7-5.3-5.8-7.7-9.1c4.5-3.4,8.9-6.9,13.3-10.5
			c0.1,0.1,0.2,0.3,0.3,0.4C671.2,295,673.2,297.2,675.3,299.4z M661.1,313.7c-0.8,0.6-1.6,1.3-2.4,1.9c-3.7-2.7-7.5-5.1-11.3-7
			c1.8-1.2,3.6-2.5,5.4-3.8C654.9,308.3,657.8,311.3,661.1,313.7z M582.3,363.2c2,4.9,7.2,9.3,11.6,12.5c-1.2,1.1-2.4,2.2-3.5,3.4
			c-4.6-4.9-9.2-9.8-13.8-14.7c0.2,0,0.3,0,0.5-0.1c7.8-4.1,15.3-9.3,22.1-15.2c2.8,4.8,6.5,9,10.7,12.6c-4.9,4-9.6,8.1-14.2,12.4
			c-2.2-2-4.3-4.1-6.3-6.4c-1.7-2-3.2-4.3-5.3-6C583.1,360.8,581.9,362.2,582.3,363.2z M555.4,349.7c0.2,0.3,0.5,0.5,0.7,0.8
			c3,3.3,5.9,6.6,8.9,9.9c-3.8,4.1-7.3,8.2-10.9,12.3c-3-3.5-6.1-7.1-9.6-10.1C548.6,358.6,552.4,354.3,555.4,349.7z M541.4,361.1
			c-0.3,0.2-0.5,0.4-0.6,0.7c-1.3,1.4-2.5,2.8-3.8,4.2c-3.7-4-7.5-8.1-11.6-11.7c3.4-3.8,6.8-7.5,10.2-11.4
			c3.3,4.3,7.3,8.3,11.8,11.4C545.4,356.6,543.4,358.8,541.4,361.1z M592.8,328.2c-0.2-0.1-0.4-0.2-0.6-0.4c2.4-1.8,4.7-3.5,7.1-5.3
			c0.8,2.3,2.5,4.1,4,6.1c1.6,2.1,3.3,4.3,4.9,6.4c0.1,0.5,0.1,1,0.2,1.5c-0.7-0.4-1.5-0.4-2.1,0.2c-5.5,5.4-11.1,10.5-16.9,15.3
			c-2.4-4.8-5.7-9-9.3-13.1c-1.7-1.9-4.4,0.9-2.4,2.6c4,3.4,7.2,7.5,10.2,11.8c-3.9,3.1-7.9,6.2-12,9.1c-0.3,0.2-0.4,0.5-0.4,0.9
			c-4.3-4.6-8.6-9.2-12.9-13.9c9.5-6.6,18.8-13.4,28.1-20.3c0.5,0.2,1,0.3,1.5,0.5C592.9,329.7,593.6,328.6,592.8,328.2z
			 M577.2,374.1c-0.4-0.1-0.9,0-1.3,0.5c-0.9,1-1.8,2-2.7,2.9c-2.9-3.4-6-7.2-9.5-9.9c1.3-1.5,2.4-3.1,3.5-4.7
			C570.6,366.7,573.9,370.4,577.2,374.1z M560.8,347.4c-0.1-0.2-0.3-0.3-0.4-0.5c-2.1-2.3-4.1-4.5-6.2-6.8c2.9-2.1,6-4.2,9-6.5
			c1.8,2.7,3.9,4.7,6.5,6.4C566.8,342.5,563.8,344.9,560.8,347.4z M561.7,370c2.8,3.4,6.6,6.5,10,9.2c-1.6,1.7-3.1,3.5-4.7,5.2
			c-1.8,2-3.7,3.9-5.4,6c-1.7-1.7-3.5-3.5-5.3-5.1c-1.9-1.8-3.7-3.8-6.1-4.9C554.1,377.3,558.2,373.8,561.7,370z M578.2,377.2
			c0.4-0.5,0.6-1.1,0.5-1.6c3.3,3.7,6.7,7.4,10.1,11.1c-3,2.6-5.8,5.4-8.7,8.3c-3.3-3.2-6.6-6.3-10.1-9.3
			C572.7,382.9,575.5,380.1,578.2,377.2z M590.9,389.1c2.7,2.9,5.4,5.7,8.1,8.5c-1.2,1-2.4,2.1-3.4,3.3c0,0,0,0,0,0
			c-2.9-2.5-5.7-5.4-8.8-7.6C588.2,391.9,589.6,390.5,590.9,389.1z M617.4,360.1c1.7-1.5-0.5-4-2.2-2.7c-1.2,0.9-2.3,1.9-3.5,2.8
			c-3.9-4.2-7.1-8.6-9.9-13.5c2.5-2.3,4.9-4.8,7.2-7.3c3,12.1,12.6,24,21.9,34.2c-0.6-0.2-1.2-0.2-1.9,0.4c-1.4,1.2-2.8,2.3-4.1,3.5
			c-1-0.3-1.8,0.5-1.7,1.4c-1.9,1.6-3.8,3.3-5.7,4.9c-3.5-4.7-7.2-10-11.6-13.9C609.9,366.6,613.7,363.4,617.4,360.1z M608.1,330.5
			c-0.7-1.2-1.4-2.4-2.2-3.5c-1.3-2.1-2.4-4.5-4.4-6.1c9.4-7.1,18.8-14.4,28.2-21.6c1.4,2,3,3.8,4.6,5.7c-6.6-0.5-12.9,1.6-18.4,7.7
			C610.7,318.4,608.4,324.4,608.1,330.5z M618.8,301.8c-2.1-2.9-4.2-5.7-6.4-8.5c0.4-0.3,0.8-0.7,1.2-1c3.6-3,7.2-5.9,10.8-8.9
			c2.5-1.4,4.8-2.9,7-4.7c1.6,3.1,4.2,6,6.8,8.5C631.6,292.1,625.2,297,618.8,301.8z M611.3,289.6c-0.5,0.4-1,0.9-1.6,1.3
			c-0.4-0.1-0.7,0-1.1,0.2c-0.3-0.9-0.8-1.8-1.4-2.5c-0.7-0.9-2.7-1.6-3.1-2.4c-1.2-2.7,2.4-6.8,4.6-7.8c5.7-2.8,7.8,1.3,9.9,5.2
			C616.1,285.6,613.7,287.6,611.3,289.6z M608.6,296.4c0.4-0.3,0.8-0.7,1.2-1c2.3,2.7,4.7,5.2,7.1,7.8c-9.5,7.2-19,14.5-28.4,21.8
			c-2.2-2.2-4-4.7-6-7.3c0.2-0.2,0.4-0.3,0.5-0.5c0.3-0.2,0.5-0.5,0.6-0.8c5.9-4.3,11.5-8.9,17.1-13.5
			C604.3,301.8,607.5,299.6,608.6,296.4z M583.1,313.6c-2.3-2.8-4.5-5.7-6.8-8.5c2.7-2.7,5.5-5.5,8.7-7.5c2.3-1.5,1.5-1.9,3.5,0.9
			c1.5,2,2.9,3.9,4.7,5.7c0.1,0.1,0.2,0.2,0.3,0.2C589.9,307.4,586.5,310.4,583.1,313.6z M549.3,324.4c2.4-2.5,5-4.8,7.8-6.8
			c2.4,3.1,4.9,6.8,8,9c-0.1,0.1-0.1,0.3-0.1,0.4c-4.4,3.4-8.4,7.6-12.3,11.4c-2.8-3.1-5.6-6.2-8.4-9.3
			C546.5,328.6,547.7,326,549.3,324.4z M553.5,347.6c-1.6,1.7-3.1,3.3-4.6,5c-4.1-3.7-7.6-7.6-10.9-12.1c0-0.1-0.1-0.1-0.1-0.2
			c1.1-1.3,2.3-2.6,3.4-4c1.4-1.7-1.4-3.6-2.8-2c-3.5,4.1-7,8.2-10.4,12.4c-2.8-3.1-5.7-6.3-8.8-9.1c-0.1-0.1-0.2-0.2-0.4-0.3
			c4.6-4.4,9.1-8.9,13-13.7C539.1,331.7,546.3,339.6,553.5,347.6z M508.7,316c2.6,5.5,8,9.8,13.3,12.7c-4.2,4.3-8.2,8.9-12.1,13.3
			c-4.9-4.8-9.4-9.9-13.8-15.2c0,0-0.1-0.1-0.1-0.1c2.5-2.3,4.9-4.6,7.3-7c1.7-1.7,3.6-3.3,5.4-5C508.6,315.2,508.5,315.6,508.7,316
			z M529.9,321.4C529.8,321.4,529.8,321.4,529.9,321.4c-2.1,1.8-4.2,3.7-6.1,5.6c-5.2-3.4-8.7-7.8-12.9-12.4
			c-0.4-0.5-1.1-0.5-1.6-0.3c2.6-2.4,5.2-4.9,7.4-7.6C521.1,311.6,525.5,316.5,529.9,321.4z M503.5,291.8c3.6,4.1,7.3,8.2,11,12.3
			c-5.2,3.9-9.7,9.2-14.3,13.8c-0.3,0.3-0.7,0.7-1,1c-3.4-3.4-7-6.6-10.5-9.7c-0.2-0.2-0.4-0.3-0.6-0.3
			C493.7,303.5,499.1,297.8,503.5,291.8z M470.3,319.1c-10.7-19-22.1-37.7-33.4-56.3c21,8.2,40.9,18.1,61.2,28.1
			c-4.4,4.3-8.4,9.1-12.7,13.4C480.4,309.3,475.4,314.2,470.3,319.1z M473.9,321.4c-0.1-0.1-0.2-0.1-0.3-0.2
			c4.2-3.4,8.5-7,12.7-10.8c0,0.5,0.1,1,0.6,1.3c3.5,3,7,6,10.7,8.7c-3.7,3.7-7.5,7.5-11.1,11.4C482.2,328.4,478,324.9,473.9,321.4z
			 M488.6,333.7c1.8-1.6,3.6-3.2,5.3-4.9c0,0,0,0,0,0c4.3,5.5,9.2,10.4,14.5,14.9c-1.1,1.2-2.2,2.5-3.3,3.7
			C499.6,342.8,494.1,338.2,488.6,333.7z M506.8,348.8c1.2-1.2,2.4-2.3,3.6-3.4c0,0,0,0,0,0c0.8,0.7,2.1-0.6,1.4-1.4
			c1.6-1.5,3.3-3,4.9-4.6c0,0.1,0.1,0.1,0.2,0.2c3.1,3.1,6.5,5.9,9.9,8.7c-2.8,3.4-5.5,6.8-8.3,10.3
			C514.6,355.4,510.7,352.1,506.8,348.8z M520.1,360c1.1-1.2,2.3-2.5,3.4-3.7c3.7,4,7.8,7.7,11.9,11.3c-0.9,1-1.9,1.9-2.8,2.8
			C528.5,366.9,524.3,363.4,520.1,360z M535.1,372.5c-0.3-0.2-0.6-0.5-0.9-0.7c2.7-2.3,5.4-4.6,8-7.1c3,3.5,6.7,6.6,10.3,9.6
			c-2.2,2.4-4.5,4.7-7,6.9C542.1,378.3,538.6,375.4,535.1,372.5z M559.7,393.1c-4.1-3.5-8.3-6.9-12.4-10.4c0.4-0.3,0.8-0.6,1.3-1
			c1.4,2.4,3.8,3.9,5.9,5.6c2,1.6,4,3.1,6,4.5C560.3,392.2,560,392.6,559.7,393.1z M574.8,400.5c-0.4,0.1-0.8,0.5-0.8,0.9
			c-0.4,0.4-0.8,0.9-1.2,1.3c-0.3,0.3-0.4,0.7-0.3,1.1c-2.4-2-4.8-4-7.2-6c-1.3-1.1-2.7-2.2-4-3.4c0.4-0.3,0.9-0.7,1.3-1
			c0.1,0.1,0.2,0.2,0.3,0.2c0.6,0.4,1.4-0.4,0.8-0.9c-0.1-0.1-0.1-0.1-0.2-0.2c1.6-1.4,3-3,4.5-4.6c0,0,0.1,0.1,0.1,0.1
			c3.5,2.9,7.1,5.7,10.7,8.4C577.5,397.7,576.1,399.1,574.8,400.5z M592.9,403.8c-2.1,2.1-4.1,4.1-5.8,6.4c-3-3-6.1-6.2-9.6-8.6
			c2.4-2,4.7-4.1,7.1-6.3c2.9,2.7,6.3,4.9,9.4,7.3C593.6,403,593.2,403.4,592.9,403.8z M609,412.5c-0.9,0.8-1.9,1.6-2.9,2.4
			c-1.9-1.2-3.8-2.5-5.5-4c-1.8-1.6-3.2-3.6-5.2-4.9c0,0-0.1,0-0.1,0c2.1-1.8,4.4-3.6,6.2-5.8c2.9,3,5.9,5.9,8.9,8.8
			c0.5,0.5,1.2,0.7,1.8,0.7C611.1,410.6,610.1,411.5,609,412.5z M614.6,407.5c0-0.5-0.1-1.1-0.6-1.6c-7.1-8.6-14.6-17-22.3-25.3
			c3.9-2.8,7.8-5.8,11.7-8.8c3.1,5.1,7.8,9.6,11.8,14c-3.2,2.8-6.3,5.6-9.3,8.5c-1.1,1.1,0.3,2.8,1.6,1.9c1.3-1,2.7-2,4-3
			c2.7,3.3,5.6,6.5,8.4,9.7C618.1,404.4,616.4,405.9,614.6,407.5z M626.1,397.3c-1.5,1.3-3,2.6-4.5,4c-2.6-3.3-5.2-6.6-7.9-9.9
			c4-3.1,7.9-6.2,11.8-9.4c0.9,1,1.9,1.9,2.7,2.9c1.7,2.1,3.1,4.3,4.3,6.7C630.4,393.5,628.3,395.4,626.1,397.3z M634.3,390.1
			c-1.5-3.3-3.5-7.3-6.2-10.2c1.2-1,2.3-1.9,3.5-2.9c0.7-0.6,0.8-1.3,0.6-2c3,3.3,6,6.4,8.6,9.3
			C638.7,386.3,636.5,388.2,634.3,390.1z M643.4,382c-11.4-14.5-32.6-32.9-30.6-51.8c12,15.6,24.8,30.7,38.4,45
			C648.6,377.5,646,379.8,643.4,382z M660.3,367.2c-2.5,2.2-5,4.4-7.5,6.6c-13.2-15.3-26.3-30.7-39.1-46.3c-0.1-0.1-0.2-0.2-0.3-0.3
			c0.8-3.2,2.2-6.4,4.6-9.7c0.1-0.2,0.2-0.3,0.4-0.5c7.6,8.9,15.4,17.7,23.2,26.4c6.6,7.4,13,15.4,20.2,22.4
			C661.2,366.3,660.7,366.7,660.3,367.2z M672.5,356.3C660.4,341,647.9,326,635.3,311c-1.2-1.4-3.5,0.4-2.3,1.9
			c12.5,15,25,30.1,38,44.7c-2.6,2.3-5.3,4.7-7.9,7c-6.2-8.4-13.6-16-20.4-23.8c-7.5-8.6-15-17.3-22.7-25.8c5.7-5.9,12.7-6.4,20.1-4
			c0,0,0.1,0,0.2,0.1c16.8,5.5,35.1,26.3,42.7,35.5c0.1,0.1,0.2,0.2,0.3,0.3C679.7,350,676.1,353.2,672.5,356.3z M687.1,343.5
			c-0.1-0.1-0.1-0.2-0.2-0.3c-3.2-3.9-7.9-9.2-13.3-14.7c1.4-0.9,2.8-1.8,4.2-2.7c0,0,0,0.1,0,0.1c0.9,3.5,3.1,6.6,5.3,9.4
			c1.5,2,3.5,4.7,5.7,6.6L687.1,343.5z M691.4,339.7c-1.6-2-3.6-3.9-5.1-5.8c-2.1-2.9-3.6-6.2-5.9-9c-0.1-0.2-0.3-0.3-0.5-0.4
			c1.7-1.2,3.4-2.4,5.1-3.7c2-1.5,4.2-3.1,6.1-4.8c1.2,2.8,3.6,4.9,5.6,7.2c2,2.2,3.9,4.4,6,6.6C699,333,695.2,336.4,691.4,339.7z
			 M704.5,328.2c-1.7-2.4-3.5-4.7-5.4-7c-1.9-2.4-3.6-5.2-6.2-6.9c0,0,0,0,0,0c1-1.1,2-2.2,2.7-3.5c0.6-1.2-0.4-2.8-1.8-2.1
			c-4,1.9-7.1,5.6-10.5,8.4c-3.9,3.3-7.9,6.3-11.8,9.4c-3.3-3.2-6.9-6.4-10.6-9.3c1.1-0.7,2.3-1.4,3.4-2.1c0.2-0.1,0.3-0.2,0.4-0.3
			c2.8-1.9,5.5-3.9,8-6c1.6,1.7,3.2,3.4,4.6,5.3c0.6,0.8,1.4,2.4,2.3,2.9c0.8,0.4,1.1,0,1.7,0.9c0.3,0.4,0.9,0,0.7-0.4
			c-0.1-0.3-0.2-0.6-0.3-0.8c0.2-0.4,0.4-1,0.1-1.5c-1.8-3.1-4-6-6.4-8.7c3.5-3.1,6.7-6.5,9.8-10.1c0.2-0.2,0.3-0.4,0.4-0.6
			c0.1,0.1,0.1,0.2,0.2,0.2c7.7,9.4,15.1,19.2,24,27.5C708.1,325,706.3,326.6,704.5,328.2z M713.1,320.5c-2.4-2.7-4.7-5.4-7-8.1
			c2.8-2.1,5.5-4.3,8.3-6.5c0.8,1.4,1.9,2.6,2.9,3.8c1.1,1.4,2.2,2.8,3.4,4.2C718.1,316.1,715.6,318.3,713.1,320.5z M723.4,297.8
			c1.7,3,3.3,6.2,5.4,8.9c-2.2,1.9-4.3,3.8-6.5,5.8c-1.8-2.7-3.5-5.9-5.8-8.2c2.5-1.9,5.1-3.8,6.8-6.3
			C723.4,297.9,723.4,297.8,723.4,297.8z M712.4,278.6c3.3,5.6,6.5,11.3,9.7,16.9c-0.2,0-0.5,0-0.7,0.1c-1,0.4-1.9,1-2.8,1.7
			c-1.7-0.7-3-1.9-4-3.4c-0.8-1.3-1.1-2.8-2-4c0,0-0.1-0.1-0.1-0.1c1.1-0.8,2.2-1.6,3.1-2.6c1.1-1.1,0.1-3.1-1.5-2.4
			c-3.3,1.3-6.1,3.9-9,6c-3-3.1-5.3-6.6-7.2-10.5c4.1-2.2,8-4.7,11.1-7.6C710.1,274.7,711.3,276.7,712.4,278.6z M700.2,258
			c2.4,4,4.7,8,7.1,11.9c-1.7,0.9-3.3,2-4.9,3.1c-2.8-3.6-5.2-7.3-7.4-11.3c0-0.1-0.1-0.1-0.1-0.2c1.7-1,3.3-2.1,5-3.2
			C700,258.3,700.1,258.2,700.2,258z M691.7,243.8c2.3,3.7,4.5,7.5,6.8,11.2c-0.4,0-0.8,0.1-1.1,0.3c-4.1,2.7-8.2,5.5-12.3,8.3
			c-0.2-1.8-1.6-3.6-2.5-5.1c-1.3-2.2-2.7-4.3-4.3-6.4c4.5-2.8,8.9-5.8,12.9-9.1C691.4,243.3,691.5,243.6,691.7,243.8z M682.7,229.3
			c2.2,3.5,4.4,7.1,6.6,10.7c-2,1.4-4,2.9-6.1,4.3c-1.7-4-4.1-7.5-7.3-10.5c2.3-1.2,4.6-2.6,6.6-4.2
			C682.6,229.5,682.7,229.4,682.7,229.3z M670.3,209.7c-0.2,0-0.5,0-0.8,0.1c-1.8,0.6-3.5,1.5-5.3,2.4c-4.2-4.5-7.6-9.5-10.5-14.9
			c-0.2-0.4-0.5-0.6-0.9-0.8c2.1-1.3,4.2-2.7,6.3-4C663,198.2,666.7,203.9,670.3,209.7z M662.4,213.2c-3.4,2-6.7,4.2-10,6.1
			c-2.4,1.4-4.9,2.7-7.4,3.9c-1.6-3-3.3-5.9-4.9-8.8c-1.3-2.3-2.4-4.9-4.3-6.7c2-1.4,4-2.7,6-4c0.7-0.4,1.3-0.8,2-1.2
			c0.6,0.4,1.4-0.2,1.4-0.9c1.9-1.2,3.8-2.4,5.7-3.6c0,0.2,0.1,0.4,0.2,0.7C654,204.1,657.9,208.9,662.4,213.2z M591.1,128.5
			c19.6,13.3,37.6,28.4,55,44.6c0.1,0.1,0.2,0.1,0.3,0.2c-10.8,8.5-22,16-33.5,23.6C606.2,173.9,598.7,151.2,591.1,128.5z
			 M614.4,199.7c12.5-5.6,24.3-13.7,34.8-22.5c2.6,4,5.2,7.9,7.8,11.9c-4.8,3.1-9.6,6.2-14.4,9.3c-2.2-2.8-3.9-5.8-5.2-9.2
			c-0.7-1.8-3.5-0.5-2.7,1.2c1.5,3.4,3.6,6.4,6.1,9.1c-0.7,0.5-1.4,0.9-2.2,1.4c-4.7,3.1-10.2,6-14.5,9.8
			C621.1,206.9,618.2,202.8,614.4,199.7z M626.1,213.3c2.7-1.2,5.3-2.8,7.8-4.5c0.8,2.5,2.5,4.7,3.9,6.9c1.8,2.8,3.5,5.6,5.4,8.4
			c-2,1-4,2-6,3C633.5,222.5,629.8,217.9,626.1,213.3z M638.9,229.1c5.5-2.1,10.8-4.6,16-7.2c5.5-2.7,11.8-5.5,16.1-9.9
			c0.2-0.2,0.3-0.4,0.4-0.7c3.3,5.2,6.6,10.4,9.8,15.6c-0.1,0-0.2,0-0.3,0.1c-5.2,1.8-10,5.1-14.8,8c-2.4-4.6-5.3-9.2-8.3-13.2
			c-1-1.2-3,0.1-2.3,1.5c2.2,4.5,5.1,9.1,8.1,13.3c-4.2,2.5-8.4,4.9-12.6,7.5L638.9,229.1z M653.6,256.1l6.8,8.5
			c4.9,6.1,9.9,12.2,14.8,18.3c-0.5-0.1-1,0-1.5,0.4c-4,3.1-8,6.1-12,9.2c-2.3-4-5.8-8.4-9.8-9.9c-0.3-0.1-0.5-0.1-0.8-0.1
			c4.1-3.2,8.2-6.3,12.3-9.5c2.1-1.6-0.5-4.6-2.6-3.1c-0.3,0.2-0.7,0.5-1,0.7c0-0.1-0.1-0.2-0.1-0.3c-2.9-3.8-5.8-7.5-8.9-11.2
			C652,258.3,653,257.3,653.6,256.1z M643.6,267.2c0.7-0.6,0.7-1.5,0.3-2.1c0.7-0.5,1.2-0.9,1.3-1c1-0.8,1.9-1.6,2.8-2.4
			c0.1-0.1,0.2-0.2,0.3-0.3c3,3.7,6.3,7.2,9.4,10.8c0,0,0.1,0.1,0.1,0.1c-5.8,4.4-11.5,8.8-17.3,13.1c-1.1-1.2-2.2-2.5-3.2-3.8
			c-1.3-1.7-2.3-3.5-3.5-5.2c0.2-0.4,0.3-0.7,0.3-1.1C637.4,272.6,640.5,269.9,643.6,267.2z M632,258.5c1.8,3,3.6,6,5.8,8.7
			c0.1,0.1,0.2,0.2,0.3,0.3c-2,1.6-3.9,3.2-5.9,4.8c-2.7-2.4-5.1-5-7.5-7.7C627.1,262.5,629.6,260.5,632,258.5z M575.5,230.9
			c0.2-0.7-0.2-1.5-1-1.6c-0.1,0-0.2,0-0.3,0c-2.9-3-5.6-6.1-8-9.6c2.7-1.5,5.4-3.1,8.2-4.7c0.7-0.4,1.4-0.8,2.1-1.2
			c1.3-0.7,1.1-0.6,1.8,0.6c0.9,1.8,1.9,3.6,3,5.3c0.5,0.9,1.5,1.1,2.2,0.9c4.6,7,11,13.4,16.4,19.5c6.5,7.5,13.2,14.8,20.1,21.9
			c-0.1,0.1-0.1,0.1-0.2,0.2c-1,0.8-1.1,2.4-0.3,3.4c2.8,3.4,5.9,6.5,9.1,9.5c-2.1,1.7-4.1,3.4-6.2,5.2c-4.6-7.9-11.9-11.1-19.3-3.5
			c-2.3,2.4-5.6,6-4.6,9.7c0.6,2.2,2.2,2.6,3.6,4.1c2,2.2,2.1,4.1,1.1,5.6c-1.5,1.2-3,2.5-4.5,3.7c-0.9,0.5-1.8,0.9-2.6,1.3
			c-1.8-3.7-5.1-10.2-9.4-10.1c-1.9,0-3.5,1.7-4.8,2.7c-3.6,2.8-7,5.9-10.3,9.2c-0.9,0.9-1.2,2.3-0.3,3.3c2.4,3,4.8,5.9,7.2,8.9
			c-1.6,1.6-3.3,3.1-5,4.6c0-0.1,0-0.2-0.1-0.4c-2.3-5.7-7.6-10.3-11.6-14.9c-4.6-5.3-9.2-10.7-13.9-16c-4.3-5-8.7-10-13-15.1
			c-4.2-4.9-8.2-10.4-13-14.6c2.3-2,4.5-3.9,7-5.6c1.2,1.4,2.5,2.9,3.7,4.3c1.4,1.6,2.5,3.4,4.5,4.2c0.6,0.3,1.4-0.1,1.7-0.6
			c0.2,0.2,0.5,0.3,0.9,0.2c3.3-1.2,6-4,8.7-6.2c0.9-0.8,0.8-2.1-0.1-2.9c-2.7-2.1-7.2-5.4-6.8-9.4c0.3-2.8,2.1-3.7,4.3-4.6
			c2.6,3.4,5.3,6.7,7.9,10.1c0.5,0.7,1.5,0.8,2.3,0.5c3.8-1.5,5.5-5.5,5.1-9.4c-0.5-4.2-3.3-7.3-6.4-9.9c1.1-0.6,2.2-1.4,3.2-2.3
			c2.5,3.2,5.3,6.2,7.9,9.3c0.7,0.8,1.8,0.8,2.6,0.2C570.8,235.3,574.5,233.8,575.5,230.9z"/>
	</g>
	<g>
		<path class="st0" d="M468,287.3c-0.5,0.4-0.5,1-0.1,1.4c-0.8-0.7-2.1-0.9-2.9,0.3c-2.9,4.3-2,10.3,1.7,13.9c4,3.9,10,3.3,13.8-0.3
			c3.8-3.6,4.8-9.5,1.2-13.6C478.1,284.7,472.4,284.3,468,287.3z M477.7,299.8c-5.7,5.3-13.4-2.4-9.5-8.5c0.5-0.8,0.4-1.7-0.1-2.3
			c0.3,0.2,0.7,0.3,1,0.1C475.7,285.6,483.8,294.1,477.7,299.8z"/>
	</g>
	<g>
		<path class="st0" d="M618.4,162.1c-0.6-0.3-1.4-0.3-2.1,0.3c-4.9,4-5.6,11.7-1.7,16.7c3.9,5.1,11,5.1,15.8,1.3
			c4.6-3.7,6.1-10.3,2.3-15.2C629.2,160.7,623.2,159.5,618.4,162.1z M628,177c-2.9,2.5-7.4,3-10-0.2c-2.7-3.3-2.4-8.5,0.9-11.2
			c0.4-0.4,0.6-0.8,0.7-1.2C626.8,162.2,635.1,171,628,177z"/>
	</g>
	<g>
		<path class="st0" d="M559.5,261.8c-0.6,1.3,0.5,2.5,1.6,2.2c-0.4,5.5,2.9,11.8,7.4,14.3c7,3.9,16.8,0.7,20.2-6.5
			c3.4-7.2-0.4-16.7-7.8-19.6C572.4,248.9,563.4,254.3,559.5,261.8z M566.5,258.5c2.9-2.3,6.4-3.8,10.1-3.4
			c6.3,0.7,10.9,7.7,8.9,13.8c-1.8,5.5-8.8,8.5-14.1,6.3c-3.1-1.3-5.2-4.2-5.9-7.4c-0.7-3.3,0.4-5.7,1.1-8.8
			C566.6,258.9,566.6,258.7,566.5,258.5z"/>
	</g>
	<g>
		<path class="st0" d="M296.6,31.8c3.2-4.3,5.9-8.8,8.2-13.5c0.4,0.1,0.8,0.1,1.1,0c4.9-1.3,9.7-2.9,14.4-4.9
			c-3.3,4.4-3.4,10.5-1.1,16.1c5.7,13.5,21.9,18.9,26.5,33.1c0.5,1.5,2.2,2.1,3.5,1c8-7.2,11-18.1,8.3-28.2c7.6,3.6,16.4,3.3,24-1.4
			c1.2-0.8,1.6-2.8,0.1-3.6c-11.1-5.5-15.4-14.1-19.5-25.2c-0.7-2-1.6-3.8-2.7-5.4h-5.4c5,4.7,6.2,14.7,9.6,20.1
			c3.2,5.1,7.5,9.1,12.5,12.2c-7.1,2.9-15.2,1.9-21.4-3.2c-1.7-1.4-4.5,0.2-3.3,2.4c4.9,8.9,3.6,19.5-2.9,27
			c-3.5-7.6-9.8-12.8-16.1-18.6c-7.4-6.9-14.8-17.7-9.4-27.6c0.9-0.4,1.9-0.9,2.8-1.3c-1,12,4.7,22.7,14.6,29.4
			c0.9,0.6,2.5,0.1,2.7-1.1c1.1-6.1,2.3-12.2,3.4-18.3c3.2,2.3,7,3.1,11.1,2.4c0.9-0.2,1.7-1.3,1.4-2.2c-2.9-7.8-9.3-16.8-17.9-19
			c1-0.7,2-1.4,3-2.1h-8.4c-8.9,5.8-18.5,10.2-28.8,13.1c0,0,0,0,0,0c0-0.1,0.1-0.1,0.1-0.2c0.4-1,0-1.8-0.6-2.3
			c-0.8-3.5-1.4-7-2-10.6h-4.2c0.3,4.4,0.9,8.7,1.9,13c-1.8,4.1-3.9,8-6.3,11.7c-1.4-8.4-3.4-16.7-6-24.8h-4.7
			c3.2,10.2,5.7,20.5,7.2,31.2C292.8,33.3,295.5,33.2,296.6,31.8z M338.2,4.2c0.1,0.1,0.1,0.1,0.2,0.2c6.9,4.9,12.8,7.9,16.3,15.6
			c-3.1,0-5.6-1.3-7.9-3.8c-0.9-1-2.9-0.6-3.1,0.8c-1.1,6.2-2.3,12.5-3.4,18.7c-7.6-6.2-11.9-15.4-12.3-25.3c0-0.1,0-0.2-0.1-0.3
			C331.4,8.3,334.8,6.4,338.2,4.2z"/>
	</g>
	<g>
		<path class="st0" d="M351.8,793.9c0.1-0.1,0.3-0.2,0.4-0.4c2.9-2.6,9.4-7.2,8.6-11.8c7.2,1.8,14.5,2.5,22,2
			c2.3-0.2,3.1-2.8,1.2-4.2c-10.6-7.9-19.6-16.9-28.6-26.5c-5.8-6.2-15.7-6.5-24.1-6.8c-1.5-2.8-3-5.5-4.4-8.3
			c-4.8-9.5-9.6-18.9-14.3-28.4c-9.3-18.5-17.8-37.7-28.6-55.4c-0.4-0.6-0.9-0.8-1.4-0.8c-5.3-6.3-12.3-11.6-18.2-17.1
			c-6.7-6.2-13.3-12.4-20-18.6c-1.4-1.3-4.3-0.6-4.1,1.6c1.3,18,0.9,36,0,54c0,0.5,0.1,0.9,0.3,1.1c0.3,4.1,2.5,7.5,4.4,11.2
			c2.4,4.5,4.8,9,7.2,13.4c5.5,10.1,10.9,20.1,16.4,30.1c5.3,9.7,10.6,19.3,15.9,29c1.9,3.4,3.6,6.9,5.4,10.5
			c-0.6,0.1-1.1,0.4-1.2,1.2c-0.8,6.1-3.2,10.9-7.3,15.4c-0.4,0.5-0.8,1.3-0.6,2c1.6,4.3,3.1,8.6,4.5,12.9h4.7
			c-1.4-4.4-3-8.8-4.8-13.1c3.5-4.7,5.6-10.1,6-15.9c2.7,5.2,5.6,10.4,9,15c-0.6,0.6-0.6,1.8,0.3,2.3c-0.3,4-0.3,7.9-0.1,11.7h4.2
			c-0.5-3.6-0.9-7.3-1.2-10.9c14.7,3.1,29.5-6.9,35.1-20.4c4,3.8,9.2,6.3,13.1,10.3c1.5,1.6,3.5,3.5,2.4,6.2
			c-0.5,1.1-2.5,2.5-3.3,3.3c-2.6,2.4-5.2,4.7-8,6.9c-2.2,1.7-4.4,3.2-6.7,4.7h8.4c1.2-0.9,2.4-1.8,3.6-2.8c0.2,0.1,0.5,0.2,0.8,0.3
			c2.2,0.2,3.9,1.2,5.4,2.5h5.4C357.6,797.2,355.1,795,351.8,793.9z M243.8,672.1c2.2-15.6,2.5-31.4,1.6-47.1
			c5.5,5.1,11,10.2,16.5,15.3c5.3,4.9,10.5,10.7,16.2,15.2C270,666.6,257.6,672.6,243.8,672.1C243.8,672.1,243.8,672.1,243.8,672.1z
			 M303.7,785.6c0.2-0.4,0.3-0.8,0.1-1.3c-3.5-9.6-9.6-18.5-14.5-27.5c-5.5-10.1-10.9-20.1-16.4-30.2c-5.3-9.7-10.5-19.4-15.8-29
			c-2.6-4.8-5.3-9.7-8-14.5c-1.5-2.6-2.8-5.2-4.6-7.4c14.7,2,29.5-5.1,37.5-17.5c0.1,0,0.3,0.1,0.4,0.1
			c7.2,17.9,16.6,35.1,25.2,52.3c4.6,9.1,9.2,18.2,13.8,27.2c4.3,8.5,8.1,18.1,13.6,26C331,778.1,317.7,785.6,303.7,785.6z M353,774
			c-4.2-3.2-8.3-6.9-12.9-9.3c-0.1-0.1-0.2-0.1-0.3-0.1c0.2-0.9-0.1-1.7-0.7-2.2c-1.6-4.4-3.7-8.6-5.9-12.8c3.5,0.9,7,1.6,10.6,2.3
			c6.7,1.3,9.4,5.5,13.9,10.3c5.8,6.2,12.1,11.8,18.7,17.1c-5.2-0.2-10.3-0.9-15.4-2.3c-1.2-0.3-2.1,0.2-2.5,1
			C356.7,776.5,354.6,775.2,353,774z"/>
	</g>
	<g>
		<path class="st0" d="M276.3,682.8c-0.3-0.3-0.8-0.5-1.3-0.3c-6.4,1.2-8.6,8.5-6,13.9c2.6,5.4,9.1,7.7,14.3,4.6
			c4.9-2.9,7.3-9.7,3.5-14.4C284.4,683.4,280,682,276.3,682.8z M281,696.9c-5.3,3.5-10-3.4-8.7-8c0.6,0.4,1.3,0.5,2,0
			c2.6-1.9,6.3-2.5,8.6,0.3C285,691.7,283.4,695.2,281,696.9z"/>
	</g>
</g>
</svg>
